<?xml version="1.0" standalone="no"?>
<!DOCTYPE svg PUBLIC "-//W3C//DTD SVG 1.1//EN" "http://www.w3.org/Graphics/SVG/1.1/DTD/svg11.dtd" >
<svg xmlns="http://www.w3.org/2000/svg" xmlns:xlink="http://www.w3.org/1999/xlink" version="1.1">
<metadata></metadata>
<defs>
<font id="baramondroman" horiz-adv-x="1024" >
<font-face units-per-em="2048" ascent="1638" descent="-410" />
<missing-glyph horiz-adv-x="512" />
<glyph horiz-adv-x="0" />
<glyph unicode="&#xd;" horiz-adv-x="512" />
<glyph unicode=" "  horiz-adv-x="512" />
<glyph unicode="&#x09;" horiz-adv-x="512" />
<glyph unicode="&#xa0;" horiz-adv-x="512" />
<glyph unicode="!" horiz-adv-x="688" d="M197 102q0 52 36.5 88.5t88.5 36.5t89.5 -36.5t37.5 -88.5q0 -51 -38 -89t-89 -38t-88 38t-37 89zM211 1276q0 66 31.5 105.5t83.5 39.5q62 0 92.5 -39t30.5 -118q0 -71 -45 -356.5t-66 -495.5h-39q-9 213 -48.5 499.5t-39.5 364.5z" />
<glyph unicode="&#x22;" horiz-adv-x="678" d="M90 1362q0 48 22 74t62 26q41 0 63.5 -26t22.5 -74q0 -9 -3 -34q-1 -5 -1 -7l-66 -457h-32l-64 457q-2 17 -3 26t-1 15zM418 1360q0 49 22.5 75.5t63.5 26.5q40 0 62 -26t22 -74q0 -14 -0.5 -23t-1.5 -18l-68 -457h-31l-65 457q0 2 -1 6q-3 22 -3 33z" />
<glyph unicode="#" horiz-adv-x="1575" d="M104 467l43 115h322l100 286h-348l43 117h348l166 471h133l-168 -471h287l168 471h131l-166 -471h307l-40 -117h-310l-100 -286h332l-43 -115h-330l-166 -469h-133l166 469h-287l-166 -469h-131l166 469h-324zM600 582h289l102 286h-291z" />
<glyph unicode="$" d="M74 311h51q44 -138 125 -201t221 -69v575q-190 56 -283.5 151t-93.5 232q0 146 106.5 247.5t276.5 115.5v145h62v-145q82 -2 160 -21t161 -57q-1 -7 -1.5 -15t-0.5 -26q0 -24 3 -81.5t3 -90.5v-37h-49q-11 131 -82 201t-194 71v-528q205 -68 299 -163.5t94 -235.5 q0 -169 -109.5 -279t-290.5 -120v-228h-61v227q-92 2 -184 28t-185 77v12q0 31 -6 77.5t-22 137.5zM248 1063q0 -101 55 -164t174 -98v505q-110 -9 -169.5 -72t-59.5 -171zM532 592l1 -549q112 5 174.5 78.5t62.5 202.5q0 102 -55 164.5t-183 103.5z" />
<glyph unicode="%" horiz-adv-x="1835" d="M113 1090q0 143 94 237t237 94t233.5 -85.5t90.5 -217.5q0 -147 -100.5 -249.5t-243.5 -102.5q-134 0 -222.5 92t-88.5 232zM254 1077q0 -122 49 -193t131 -71q87 0 138 80t51 217q0 122 -49.5 194t-131.5 72q-89 0 -138.5 -78.5t-49.5 -220.5zM453 -59l786 1525h88 l-786 -1525h-88zM1047 303q0 144 95 239t238 95q142 0 233 -86t91 -219q0 -145 -100 -247.5t-238 -102.5q-141 0 -230 90t-89 231zM1190 291q0 -122 48.5 -192t131.5 -70q86 0 136 79.5t50 217.5q0 122 -48.5 194t-129.5 72q-89 0 -138.5 -79.5t-49.5 -221.5z" />
<glyph unicode="&#x26;" horiz-adv-x="1698" d="M109 356q0 131 76.5 234.5t248.5 204.5q-90 69 -135 139.5t-45 144.5q0 112 86.5 193.5t208.5 81.5q113 0 188.5 -69t75.5 -171q0 -62 -33 -110t-168 -144q163 -120 252 -206t135 -165q109 133 163.5 228.5t54.5 152.5q0 59 -39.5 87.5t-122.5 31.5v45q9 1 19.5 1.5 t27.5 0.5q24 0 92 -7t111 -7q26 0 109.5 3.5t141.5 4.5v-51h-6q-63 0 -114 -27.5t-109 -93.5q-1 -1 -93.5 -142t-199.5 -280q105 -201 174.5 -267.5t159.5 -66.5q61 0 117 32t100 91l35 -22q-61 -112 -147.5 -170t-192.5 -58q-128 0 -200 65t-144 259q-169 -202 -259 -258.5 t-198 -56.5q-160 0 -265 105.5t-105 266.5zM266 442q0 -129 88 -220t211 -91q82 0 163.5 53.5t176.5 169.5q-45 97 -154 202t-270 206q-110 -65 -162.5 -143t-52.5 -177zM381 1130q0 -63 45.5 -121t144.5 -120q63 48 89 97.5t26 119.5q0 80 -46 133t-116 53 q-57 0 -100 -47.5t-43 -114.5z" />
<glyph unicode="'" horiz-adv-x="348" d="M90 1360q0 50 21.5 76t62.5 26t63.5 -26t22.5 -74q0 -9 -3 -34q-1 -5 -1 -7l-66 -457h-32l-66 457q-1 8 -1.5 16t-0.5 23z" />
<glyph unicode="(" horiz-adv-x="821" d="M260 436q0 299 109.5 557t324.5 467l54 -51q-188 -200 -277.5 -437.5t-89.5 -535.5q0 -274 85.5 -494.5t268.5 -418.5l-45 -49q-217 199 -323.5 438t-106.5 524z" />
<glyph unicode=")" horiz-adv-x="821" d="M70 -475q186 199 276 437.5t90 535.5q0 274 -85.5 494.5t-268.5 418.5l45 49q215 -198 322.5 -436.5t107.5 -517.5q0 -305 -108.5 -562.5t-327.5 -469.5z" />
<glyph unicode="*" d="M129 905q0 49 66.5 78t222.5 45q-72 -101 -123 -146.5t-92 -45.5q-32 0 -53 19.5t-21 49.5zM154 1266q0 29 19.5 50t45.5 21q41 0 92.5 -48.5t122.5 -155.5q-144 17 -212 49.5t-68 83.5zM496 809q0 25 4.5 66.5t15.5 113.5q71 -90 102 -145.5t31 -91.5q0 -35 -21.5 -56.5 t-56.5 -21.5t-55 35.5t-20 99.5zM508 1294q0 83 23 125.5t67 42.5q33 0 52.5 -20t19.5 -53q0 -38 -39 -97.5t-115 -138.5q0 6 -1 18q-7 87 -7 123zM569 1075q94 31 146 44.5t78 13.5q47 0 73.5 -21t26.5 -59q0 -31 -22 -50.5t-56 -19.5q-41 0 -101 22.5t-145 69.5z" />
<glyph unicode="+" horiz-adv-x="1706" d="M254 553v117h541v551h118v-551h539v-117h-539v-553h-118v553h-541z" />
<glyph unicode="," horiz-adv-x="512" d="M86 -260q102 39 146 83.5t44 106.5q0 36 -18 66.5t-53 54.5q-59 14 -88 40.5t-29 66.5q0 44 33.5 72t87.5 28q81 0 134.5 -67t53.5 -173q0 -109 -79 -198t-216 -133z" />
<glyph unicode="-" horiz-adv-x="750" d="M94 385v139h557v-139h-557z" />
<glyph unicode="." horiz-adv-x="512" d="M115 102q0 51 37.5 88t89.5 37t88.5 -36t36.5 -89q0 -52 -37 -89.5t-88 -37.5t-89 38.5t-38 88.5z" />
<glyph unicode="/" horiz-adv-x="842" d="M0 -190l659 1611h95l-660 -1611h-94z" />
<glyph unicode="0" d="M104 674q0 335 105.5 513.5t302.5 178.5q195 0 301.5 -180t106.5 -512q0 -333 -106.5 -512.5t-301.5 -179.5q-198 0 -303 177t-105 515zM193 678q0 -251 82 -383.5t237 -132.5q156 0 237.5 132t81.5 384q0 253 -82 386.5t-237 133.5q-154 0 -236.5 -134.5t-82.5 -385.5z " />
<glyph unicode="1" d="M201 1090l133 88q61 40 114.5 86.5t100.5 99.5l61 -4v-1145q0 -93 37 -127t135 -37v-43q-35 -2 -63 -3t-55 -1q-6 0 -60 1t-102 1q-20 0 -76.5 -3t-91.5 -3h-64v51h19q85 0 121 30t36 99v942q0 26 -2 35.5t-8 9.5q-9 0 -36 -16q-5 -3 -7 -4l-164 -100z" />
<glyph unicode="2" d="M49 3v67q323 298 469 511t146 384q0 115 -62.5 185.5t-163.5 70.5q-80 0 -152 -49.5t-136 -147.5l-46 25q82 156 190 235.5t238 79.5q143 0 227.5 -89t84.5 -241q0 -157 -126.5 -340t-496.5 -530h316q78 0 175.5 2t205.5 6l-105 -172q-104 1 -226.5 2.5t-137.5 1.5 q-70 0 -179.5 -3t-148.5 -3q-16 0 -33.5 1t-38.5 4z" />
<glyph unicode="3" d="M84 98q0 34 20.5 55t53.5 21q15 0 31 -4.5t27 -12.5l16 -12q96 -71 159 -71q120 0 206.5 103.5t86.5 252.5q0 127 -61.5 204t-159.5 77q-21 0 -43.5 -3t-46.5 -10l-21 41l135 123q53 49 80 97.5t27 97.5q0 77 -56.5 127.5t-146.5 50.5q-57 0 -110 -26.5t-107 -82.5 l-35 27q65 108 149.5 161.5t190.5 53.5q114 0 187 -62t73 -157q0 -62 -36 -126.5t-113 -139.5v-13q136 -57 203 -147t67 -215q0 -97 -38.5 -187.5t-110.5 -160.5q-86 -85 -199 -132.5t-225 -47.5q-92 0 -147.5 33t-55.5 85z" />
<glyph unicode="4" d="M82 439v50q134 203 285.5 418.5t162.5 233.5l152 223l66 -6q-9 -100 -13 -206.5t-4 -252.5v-326h199v-129h-199v-444h-151v444h-228q-49 0 -115.5 -1.5t-154.5 -3.5zM252 614q0 -21 17.5 -31t58.5 -10h252v545l-314 -469q-8 -13 -11 -21.5t-3 -13.5z" />
<glyph unicode="5" d="M113 102q0 33 22 52.5t60 19.5q21 0 41 -8.5t55 -36.5q38 -29 69.5 -41t67.5 -12q114 0 200.5 102.5t86.5 243.5q0 137 -82 222t-215 85q-44 0 -96 -13.5t-111 -39.5l-31 22q32 210 51.5 366t30.5 282h232q122 0 187.5 0.5t123.5 3.5l-72 -156q-11 -1 -31.5 -1.5 t-80.5 -0.5q-16 0 -77 1t-106 1h-63q-38 0 -53 -16t-19 -74l-16 -225q28 1 88 6.5t86 5.5q190 0 308 -117t118 -305q0 -98 -50 -189.5t-143 -164.5q-80 -64 -176 -98.5t-190 -34.5q-95 0 -155 34.5t-60 85.5z" />
<glyph unicode="6" d="M113 496q0 275 157.5 506.5t438.5 365.5l34 -53q-195 -139 -305 -318t-129 -389q66 65 141 98t154 33q146 0 239 -97.5t93 -252.5q0 -176 -114.5 -292.5t-284.5 -116.5q-188 0 -306 143t-118 373zM293 416q0 -167 68.5 -268t179.5 -101q97 0 157 80t60 211 q0 146 -64 229.5t-174 83.5q-53 0 -105.5 -25.5t-105.5 -76.5q-8 -40 -12 -73t-4 -60z" />
<glyph unicode="7" d="M133 1192l66 154h790v-23q-32 -91 -243.5 -473t-503.5 -868l-95 57q307 506 468 794.5t161 329.5q0 15 -28 21t-127 6h-160q-36 0 -103 -2t-98 -2q-34 0 -66 1.5t-61 4.5z" />
<glyph unicode="8" d="M141 285q0 101 69 193t206 175q-123 89 -184.5 181t-61.5 186q0 143 107.5 243.5t265.5 100.5q143 0 237 -85.5t94 -213.5q0 -89 -65.5 -173.5t-202.5 -172.5q140 -92 207.5 -186t67.5 -197q0 -146 -113 -250t-274 -104q-148 0 -250.5 89t-102.5 214zM281 326 q0 -124 67 -202.5t170 -78.5q93 0 153 63t60 160q0 100 -63.5 183.5t-210.5 175.5q-86 -54 -131 -131.5t-45 -169.5zM305 1083q0 -86 63.5 -168.5t194.5 -166.5q92 60 133 132.5t41 172.5q0 107 -62.5 176t-160.5 69q-89 0 -149 -61.5t-60 -153.5z" />
<glyph unicode="9" d="M90 950q0 174 118 294t290 120q181 0 298 -142t117 -366q0 -276 -171.5 -510t-485.5 -385l-35 51q226 152 353.5 340.5t146.5 397.5q-65 -73 -138.5 -108.5t-160.5 -35.5q-147 0 -239.5 96t-92.5 248zM266 1010q0 -138 69 -229t171 -91q56 0 110 33t109 100q4 24 6 47 t2 48q0 182 -63 281t-178 99q-99 0 -162.5 -80.5t-63.5 -207.5z" />
<glyph unicode=":" horiz-adv-x="559" d="M135 102q0 52 36.5 88.5t88.5 36.5t88.5 -36t36.5 -89q0 -52 -37 -89.5t-88 -37.5q-50 0 -87.5 38t-37.5 89zM135 745q0 52 37 89.5t88 37.5q52 0 88.5 -37t36.5 -90q0 -51 -37 -87.5t-88 -36.5t-88 37t-37 87z" />
<glyph unicode=";" horiz-adv-x="559" d="M115 -260q102 39 146 83.5t44 106.5q0 36 -18 66.5t-54 54.5q-58 14 -87 40.5t-29 66.5q0 44 33.5 72t87.5 28q81 0 134.5 -67t53.5 -173q0 -109 -79 -198t-216 -133zM152 768q0 51 36.5 88t87.5 37q53 0 90 -36.5t37 -88.5q0 -51 -37.5 -88t-89.5 -37q-50 0 -87 37 t-37 88z" />
<glyph unicode="&#x3c;" horiz-adv-x="1706" d="M264 559v103l1178 483v-127l-1000 -408l1000 -405v-129z" />
<glyph unicode="=" horiz-adv-x="1706" d="M254 360v117h1198v-117h-1198zM254 743v117h1198v-117h-1198z" />
<glyph unicode="&#x3e;" horiz-adv-x="1706" d="M264 76v129l1000 405l-1000 408v127l1178 -483v-103z" />
<glyph unicode="?" horiz-adv-x="909" d="M172 1321q0 46 31.5 73t85.5 27q67 0 137.5 -42t126.5 -115q68 -91 108.5 -205t40.5 -213q0 -98 -50.5 -155t-213.5 -111q-40 -14 -57 -38.5t-21 -75.5l-8 -97h-51l-12 352q165 36 242 99.5t77 162.5q0 92 -58 159.5t-161 94.5q-25 -4 -52 -6t-52 -2q-54 0 -83.5 24 t-29.5 68zM197 102q0 52 36.5 88.5t88.5 36.5q51 0 89 -37t38 -88t-38 -89t-89 -38q-52 0 -88.5 37.5t-36.5 89.5z" />
<glyph unicode="@" horiz-adv-x="2019" d="M145 537q0 204 86 381t250 313q131 110 291 165.5t344 55.5q347 0 553.5 -187t206.5 -499q0 -157 -58 -297t-163 -236q-57 -52 -123.5 -80t-134.5 -28q-97 0 -149 52.5t-58 158.5q-62 -106 -139 -158.5t-170 -52.5q-125 0 -201 92t-76 244q0 108 49 216t138 193 q65 64 144 100t155 36q87 0 143 -49.5t78 -145.5l53 180h143l-170 -610q0 -2 -1 -5q-17 -59 -17 -104q0 -47 25.5 -74.5t68.5 -27.5q34 0 79 17.5t85 48.5q122 90 187 231t65 315q0 140 -50 252t-153 203q-90 79 -216 122.5t-267 43.5q-187 0 -341.5 -58.5t-275.5 -175.5 q-130 -126 -197 -293.5t-67 -369.5q0 -175 57 -304.5t181 -234.5q114 -97 261 -146.5t320 -49.5q163 0 317.5 52t295.5 154l30 -36q-148 -110 -313 -166t-342 -56q-187 0 -342 46.5t-274 138.5q-151 113 -229.5 274.5t-78.5 358.5zM750 375q0 -93 40.5 -147t108.5 -54 q66 0 126 44.5t116 133.5q57 94 91 202.5t34 197.5q0 93 -47.5 153t-120.5 60q-54 0 -99 -31t-92 -100q-72 -108 -114.5 -234t-42.5 -225z" />
<glyph unicode="A" horiz-adv-x="1559" d="M37 4v61q101 6 142.5 28.5t68.5 76.5q30 59 109 297q21 63 32 98q96 289 162.5 500t83.5 278l6 21q5 20 31.5 43t99.5 68l27 -11q137 -352 281 -723.5t153 -394.5q59 -147 83.5 -192t47.5 -62q17 -12 49 -19.5t80 -11.5v-59q-12 0 -32.5 -1t-28.5 -1q-43 0 -104.5 5 t-80.5 5q-27 0 -98 -5t-115 -5q-30 0 -45.5 0.5t-29.5 1.5l-1 61h41q61 2 87 19.5t26 54.5q0 18 -5 41.5t-15 48.5l-131 332q-55 0 -374 8q-69 1 -108 2l-78 -243q-18 -60 -27 -98t-9 -58q0 -57 37.5 -82t123.5 -27v-57h-37q-52 0 -130.5 3t-106.5 3q-16 0 -69.5 -1.5 t-145.5 -4.5zM508 649l412 -2q-76 213 -128 342.5t-102 237.5q-23 -77 -86.5 -270.5t-95.5 -307.5z" />
<glyph unicode="B" horiz-adv-x="1305" d="M63 1376v51h60q43 0 105 -1t81 -1q61 0 157.5 4.5t129.5 4.5q238 0 370 -90t132 -252q0 -112 -77 -186t-228 -107v-11q200 -28 309.5 -130.5t109.5 -260.5q0 -176 -140 -285.5t-372 -109.5q-40 0 -133 6t-145 6q-36 0 -143.5 -6t-180.5 -6h-28v55q5 1 18 3q117 16 158 38 q27 16 38 50.5t11 140.5v26v918q0 73 -47 103t-185 40zM469 289q0 -131 41.5 -173t161.5 -42q153 0 246.5 88.5t93.5 234.5q0 164 -105.5 255t-296.5 91q-31 0 -67 -3t-74 -9v-442zM469 805q6 -1 15 -1q31 -3 44 -3q182 0 280.5 73.5t98.5 208.5q0 134 -80.5 211.5 t-220.5 77.5q-80 0 -108.5 -24.5t-28.5 -94.5v-448z" />
<glyph unicode="C" horiz-adv-x="1589" d="M94 717q0 98 28.5 192t84.5 178q119 182 301.5 276.5t411.5 94.5q130 0 250.5 -28.5t230.5 -86.5q2 -49 13 -145.5t13 -142.5l-51 -8q-41 158 -160.5 250t-283.5 92q-133 0 -241 -45.5t-191 -137.5q-88 -96 -135.5 -220.5t-47.5 -256.5q0 -148 45 -272t134 -221 q86 -96 203 -144.5t262 -48.5q178 0 290.5 83t149.5 243l59 -15q-3 -40 -24 -134.5t-29 -145.5q-110 -55 -228.5 -83t-242.5 -28q-183 0 -339 60t-275 176q-110 108 -169 242t-59 276z" />
<glyph unicode="D" horiz-adv-x="1686" d="M66 1348v55q186 27 338 41t266 14q203 0 356 -41.5t268 -128.5q134 -101 205.5 -246t71.5 -315q0 -329 -220.5 -528t-584.5 -199q-43 0 -154 5t-180 5q-39 0 -160.5 -5t-203.5 -5v61q148 11 187.5 43.5t39.5 124.5v1000q0 69 -33 96t-119 27q-17 0 -65 -4h-12zM479 276 q0 -98 70.5 -150t202.5 -52q280 0 445 178t165 483q0 138 -36.5 243.5t-115.5 192.5q-95 107 -217.5 160t-271.5 53q-145 0 -193.5 -31.5t-48.5 -121.5v-955z" />
<glyph unicode="E" horiz-adv-x="1305" d="M63 -4l1 55q144 2 187.5 39t43.5 150v995q0 71 -50.5 102.5t-168.5 34.5v49q46 3 68 3.5t42 0.5q44 0 126 -3t120 -3q64 0 136 1t79 1h137h240q11 0 42.5 1t57.5 1q1 -9 1.5 -21t0.5 -36q0 -32 -3 -111.5t-3 -128.5h-57v13q0 131 -61.5 177t-319.5 46 q-132 0 -167.5 -35.5t-35.5 -191.5v-342q12 -1 38 -3q55 -4 83 -4q5 0 28 1t42 1q142 0 191 34.5t67 127.5h51q-4 -70 -6 -173t-2 -257h-53q-8 118 -45 155.5t-195 37.5h-45q-47 0 -148 -4h-6v-416q0 -134 44 -177.5t179 -43.5h244q88 0 134.5 38.5t117.5 192.5l57 -10 l-84 -289q-33 -2 -71.5 -3t-114.5 -1q-89 0 -256.5 5t-245.5 5q-58 0 -189 -7t-204 -7h-27z" />
<glyph unicode="F" horiz-adv-x="1270" d="M63 -12v59q20 4 55 10q116 20 140 47q19 22 28 91.5t9 197.5v543q0 216 -9.5 293.5t-33.5 99.5q-16 15 -65 23t-124 8l1 55q13 1 32.5 1.5t96.5 0.5q43 0 122.5 -1t116.5 -1q66 0 140 1t81 1h144q39 0 121 3t124 3q19 0 40 -0.5t65 -3.5l2 -291h-57q-15 140 -62 185 t-196 45h-183q-101 0 -141.5 -28.5t-40.5 -96.5v-446q55 -4 98 -5.5t72 -1.5h49q209 0 257.5 35.5t49.5 138.5h51q-1 -92 -3.5 -183.5t-2.5 -94.5q0 -39 1 -79.5t3 -94.5h-53q-9 120 -62 166.5t-188 46.5q-63 0 -223 -3q-33 -1 -49 -1v-514q0 -80 45 -109t172 -29v-61 q-12 -1 -27 -1.5t-43 -0.5q-48 0 -128.5 4t-112.5 4q-12 0 -116 -6t-196 -10z" />
<glyph unicode="G" horiz-adv-x="1636" d="M94 702q0 153 61.5 290.5t176.5 242.5q115 106 264.5 160.5t325.5 54.5q130 0 248.5 -28t222.5 -83q8 -116 11 -167t3 -82v-21l-57 4q-42 148 -149 226.5t-267 78.5q-82 0 -162 -23t-149 -67q-151 -94 -228.5 -238t-77.5 -333q0 -148 47.5 -275t139.5 -223 q81 -85 185 -130.5t218 -45.5q163 0 249.5 61.5t86.5 178.5v133q0 76 -54 108.5t-183 32.5q-19 0 -29 -0.5t-18 -1.5l-1 57q11 1 30 1q106 3 151 3h430v-48q-100 -4 -134 -35t-34 -121v-119q0 -53 3 -103t9 -98q-97 -59 -218.5 -90t-256.5 -31q-182 0 -327.5 45t-262.5 138 q-123 98 -188.5 239t-65.5 309z" />
<glyph unicode="H" horiz-adv-x="1808" d="M90 65q125 4 163 33t38 133v992q0 75 -42 104.5t-159 34.5v59h33q58 0 139.5 -4t104.5 -4q70 0 180.5 4t142.5 4v-61q-135 -7 -175 -31t-40 -90v-434h856v436q0 63 -37.5 88.5t-144.5 32.5v59q63 -1 155.5 -5.5t122.5 -4.5q41 0 137 5t152 5v-61q-106 -5 -153 -32.5 t-47 -84.5v-1020q0 -93 34 -125t133 -32h27v-61q-17 -2 -36.5 -2.5t-55.5 -0.5q-41 0 -104.5 2t-86.5 2q-28 0 -96.5 -2t-109.5 -2q-37 0 -55.5 0.5t-34.5 1.5l-1 62q134 6 167.5 31.5t33.5 115.5v502h-856v-508q0 -86 30 -113.5t126 -27.5h35l-1 -62q-18 -1 -38.5 -1.5 t-59.5 -0.5q-45 0 -112 2t-88 2q-23 0 -87 -2t-104 -2q-34 0 -51.5 0.5t-33.5 1.5z" />
<glyph unicode="I" horiz-adv-x="807" d="M94 65q133 4 172 33t39 133v992q0 75 -43 104.5t-165 34.5l-1 59h35q64 0 163.5 -4t135.5 -4h35q7 0 94 3t168 5v-61q-149 -7 -191 -31.5t-42 -89.5v-1032q0 -85 32 -113t136 -28h38v-62q-19 -1 -41 -1.5t-63 -0.5q-48 0 -118.5 2t-92.5 2q-20 0 -84.5 -2t-110.5 -2 q-37 0 -57 0.5t-38 1.5z" />
<glyph unicode="J" horiz-adv-x="780" d="M-109 -303q0 43 25.5 70.5t65.5 27.5q31 0 55 -17.5t41 -52.5q8 -17 19 -48q25 -70 67 -70q65 0 95 88.5t30 288.5v1239q0 76 -42.5 105t-164.5 34v59h27q55 0 153 -5t141 -5q29 0 131 4.5t176 5.5v-61q-153 -7 -192 -33.5t-39 -109.5v-1102q0 -285 -92.5 -432.5 t-271.5 -147.5q-97 0 -160.5 46.5t-63.5 115.5z" />
<glyph unicode="K" horiz-adv-x="1505" d="M84 5v60q133 4 172 33t39 133v992q0 75 -43 104.5t-166 34.5v59h33q58 0 144.5 -4t115.5 -4q54 0 134 2t177 6v-61q-134 -7 -173.5 -31t-39.5 -90v-477q247 233 368.5 372t121.5 189q0 22 -28.5 30.5t-111.5 8.5v59q7 0 19 -1t18 -1q52 0 127 -3t96 -3q23 0 86.5 2.5 t143.5 5.5v-63h-31q-64 0 -113 -14.5t-92 -45.5q-7 -5 -129 -147t-252 -277q265 -343 405.5 -520t174.5 -211q39 -40 91 -59t132 -23v-59q-118 0 -247 3q-32 1 -39 1q-21 0 -123.5 -5t-184.5 -5h-43v61h29q90 0 127 13t37 43q0 29 -215 300q-162 204 -266 341l-101 -90v-457 q0 -86 30 -113.5t126 -27.5h35l-1 -62q-18 -1 -38.5 -1.5t-59.5 -0.5q-43 0 -110 2t-90 2q-17 0 -79 -2t-108 -2q-38 0 -58.5 0.5t-39.5 2.5z" />
<glyph unicode="L" horiz-adv-x="1249" d="M90 1366v51q14 2 31 3t49 1q36 0 105 -4t102 -4q31 0 110 4t125 4q32 0 48.5 -0.5t29.5 -1.5v-57q-126 -5 -166.5 -29t-40.5 -88v-923q0 -75 10 -122t31 -69q30 -32 96.5 -45.5t217.5 -13.5q106 0 163.5 11.5t88.5 37.5q17 16 38.5 57t55.5 125l63 -6l-80 -299 q-21 -1 -47.5 -1.5t-81.5 -0.5t-183 3t-200 3q-148 0 -327 -9t-209 -9h-27v57q132 10 166.5 37.5t34.5 111.5v1006q0 88 -43 129t-133 41h-27z" />
<glyph unicode="M" horiz-adv-x="1876" d="M25 0v57q80 3 131.5 20t72.5 48q15 20 23 60t14 139q15 262 23 478.5t8 317.5q0 50 -0.5 80.5t-1.5 60.5q-45 46 -108 71.5t-148 33.5v57q121 -6 164.5 -8t64.5 -2q16 0 60 2t71 2q26 0 38.5 -0.5t23.5 -1.5q134 -321 240 -579t204 -504h19q75 168 231 533t238 552 q8 1 18.5 1.5t30.5 0.5q24 0 64 -2t55 -2q24 0 67 3t62 3t64 -3q5 -1 7 -1v-55q-8 1 -18 1.5t-29 0.5q-78 0 -110.5 -32t-32.5 -109v-6l16 -891q4 -182 43.5 -223.5t159.5 -41.5q2 0 4 -2v-59q-51 4 -102 6t-129 2q-54 0 -129 -1t-97 -1q-33 0 -58 -1.5t-40 -3.5v56 q112 19 146 49t34 107v10l-12 1022q-213 -481 -366.5 -855t-163.5 -425l-33 8q-114 348 -236 653t-237 529l-25 -967v-8q0 -71 36.5 -97t139.5 -28v-63q-24 1 -81 5.5t-81 4.5q-50 0 -135 -3t-121 -3q-34 0 -50 1t-29 3z" />
<glyph unicode="N" horiz-adv-x="1774" d="M16 1360l1 61q10 1 24 1.5t45 0.5q44 0 166.5 -3.5t200.5 -4.5q77 -92 226 -272q492 -595 728 -834v928q0 68 -37 94.5t-137 26.5h-31v59q36 3 53 3.5t31 0.5q36 0 99 -3t92 -3q21 0 82 3t100 3q9 0 28 -1t29 -1v-61q-97 -4 -136 -14.5t-56 -32.5q-16 -23 -22.5 -117.5 t-6.5 -384.5v-127q0 -181 7 -627q1 -73 1 -110v-35h-18q-10 17 -338.5 401t-781.5 906v-981q0 -99 42.5 -137t155.5 -38h10v-59q-13 -1 -26.5 -1.5t-40.5 -0.5q-38 0 -96.5 3t-77.5 3q-21 0 -78.5 -3t-93.5 -3h-84v61q115 7 156.5 42.5t41.5 125.5v1014q-49 64 -101.5 91.5 t-123.5 27.5q-4 0 -15.5 -1t-17.5 -1z" />
<glyph unicode="O" horiz-adv-x="1815" d="M115 694q0 146 52.5 277.5t154.5 242.5q110 120 260 183t325 63q153 0 288.5 -49.5t246.5 -146.5q118 -105 184 -241t66 -275q0 -154 -60.5 -292.5t-175.5 -250.5q-120 -118 -272 -181t-318 -63q-148 0 -280 50.5t-236 146.5q-114 105 -174.5 243t-60.5 293zM332 752 q0 -319 160.5 -516t416.5 -197q250 0 409 177t159 460q0 93 -18.5 180t-53.5 162q-84 179 -222 273.5t-315 94.5q-242 0 -389 -173t-147 -461z" />
<glyph unicode="P" horiz-adv-x="1243" d="M66 1352v55q160 27 274 39t201 12q290 0 462.5 -117.5t172.5 -310.5q0 -179 -125 -292t-326 -113q-31 0 -56.5 2t-45.5 6v49h22q161 0 246.5 88.5t85.5 255.5q0 153 -103.5 255.5t-259.5 102.5q-73 0 -104 -23t-31 -77v-1026q0 -128 38.5 -162t162.5 -39l-2 -55h-37 q-67 0 -167 4t-132 4q-34 0 -93 -2t-181 -8v63q149 10 188 44t39 147v977q0 70 -33.5 97.5t-118.5 27.5q-17 0 -64 -3q-9 -1 -13 -1z" />
<glyph unicode="Q" horiz-adv-x="1815" d="M115 694q0 147 52 278.5t152 239.5q114 121 264.5 184.5t323.5 63.5q152 0 288 -50t247 -146q118 -105 184 -241t66 -275q0 -265 -166.5 -470t-450.5 -288q19 -34 53 -100q82 -162 142 -220q51 -51 126 -75.5t183 -24.5q9 0 27.5 1t27.5 1v-61q-38 -7 -73.5 -10t-67.5 -3 q-174 0 -296.5 56t-203.5 172q-27 38 -66.5 119t-66.5 116q-108 5 -198.5 28t-163.5 64q-182 102 -282.5 271t-100.5 370zM332 752q0 -319 160.5 -516t416.5 -197q250 0 409 177t159 460q0 93 -18.5 180t-53.5 162q-84 179 -222 273.5t-315 94.5q-242 0 -389 -173t-147 -461 z" />
<glyph unicode="R" horiz-adv-x="1417" d="M72 1366v59h49q50 0 139.5 -4t128.5 -4q36 0 114 4t122 4q224 0 355.5 -92t131.5 -248q0 -119 -84.5 -205t-241.5 -124q96 -65 235 -297q64 -107 101 -162q64 -95 105.5 -142.5t73.5 -64.5q22 -11 56 -16.5t79 -5.5v-58h-41q-58 0 -139.5 -5t-106.5 -5h-23 q-124 133 -247.5 348t-149.5 252q-48 69 -97.5 98t-117.5 29q-16 0 -24.5 -0.5t-16.5 -2.5v-542q0 -70 39.5 -95.5t167.5 -27.5v-59h-6q-72 -4 -105 -4q-44 0 -111.5 3t-88.5 3q-30 0 -115.5 -4t-140.5 -4h-33v61q123 2 169 41.5t46 145.5v987q0 80 -38.5 106.5t-184.5 30.5 zM473 793q33 -3 60 -5t45 -2q163 0 253.5 76t90.5 213q0 125 -88.5 207t-225.5 82q-70 0 -102.5 -20t-32.5 -64v-487z" />
<glyph unicode="S" horiz-adv-x="1020" d="M82 295l59 6q37 -135 114 -204.5t189 -69.5q123 0 205 80t82 200q0 28 -4.5 54t-13.5 52q-38 105 -222 209q-20 11 -30 17q-22 13 -68 37q-157 83 -223 155q-38 42 -57 94.5t-19 118.5q0 187 123 299.5t328 112.5q74 0 140.5 -13.5t129.5 -41.5q2 -52 9 -132.5t7 -109.5 q0 -14 -0.5 -21t-1.5 -12h-59q-18 125 -87.5 195t-176.5 70t-181.5 -70.5t-74.5 -169.5q0 -88 56 -153.5t238 -161.5q15 -8 45 -23q165 -83 236 -166q45 -53 67.5 -117.5t22.5 -140.5q0 -192 -140 -311t-369 -119q-78 0 -150 19.5t-143 60.5q-8 39 -15 125t-16 131z" />
<glyph unicode="T" horiz-adv-x="1339" d="M0 1120q14 101 20.5 179t6.5 141q0 30 -0.5 44.5t-1.5 26.5l65 -4q24 -46 63 -65t130 -19h94h497q195 0 258 23t101 82l57 -15v-2q0 -2 -19.5 -130t-35.5 -263h-70q1 3 1 7q7 54 8 75q0 82 -48.5 112.5t-199.5 30.5h-183v-1052q0 -147 40.5 -188.5t162.5 -41.5q3 0 8 2.5 t9 2.5q1 0 3.5 -1.5t4.5 -3.5v-61q-135 0 -279 8q-33 2 -41 2q-20 0 -100.5 -5t-140.5 -5h-84v61q130 0 179.5 38t49.5 137v1103q-6 1 -18 1q-91 3 -129 3q-80 0 -132.5 -5.5t-76.5 -16.5q-50 -23 -78.5 -66.5t-57.5 -154.5z" />
<glyph unicode="U" horiz-adv-x="1726" d="M82 1366v59q58 -1 155.5 -5.5t135.5 -4.5q43 0 127 3t125 3q30 0 45.5 -0.5t27.5 -1.5v-61h-22q-103 0 -148 -28.5t-45 -92.5v-586q0 -194 14 -281.5t48 -138.5q49 -74 140 -111.5t220 -37.5q229 0 337 119.5t108 371.5v668q0 69 -35 94.5t-145 30.5l-1 59h48 q41 0 104 -3t84 -3q43 0 127 2t125 2l-1 -61q-137 -7 -172.5 -30.5t-35.5 -92.5v-659q0 -312 -142.5 -464.5t-433.5 -152.5q-288 0 -432.5 122.5t-144.5 365.5v684q0 145 -41 186.5t-172 44.5z" />
<glyph unicode="V" horiz-adv-x="1456" d="M-2 1364v57q51 0 128.5 -5t102.5 -5q52 0 156 4.5t156 5.5v-57q-108 -10 -134 -24.5t-26 -47.5q0 -40 106 -319t275 -674h18q218 546 289.5 743.5t71.5 243.5q0 40 -36.5 57t-147.5 23l-1 55h29q28 0 107.5 -5t132.5 -5q36 0 122 6q42 3 64 4v-50q-68 -8 -104.5 -38 t-83.5 -147l-59 -147q-419 -1041 -419 -1074l-51 6v2q0 19 -152 397.5t-268 676.5q-2 6 -8 21q-92 236 -131 263q-16 13 -109 28q-18 3 -28 5z" />
<glyph unicode="W" horiz-adv-x="1972" d="M-12 1368v53q26 0 103 -3t118 -3q45 0 100 2.5t131 7.5v-61q-56 -2 -80 -18t-24 -52q0 -41 344 -820q65 -147 100 -228l183 407q-47 109 -121 283q-119 280 -133 307q-38 67 -76.5 94t-97.5 31v53q54 -1 131.5 -3.5t99.5 -2.5q18 0 80.5 3t107.5 3h50l-1 -57 q-65 -2 -91.5 -17.5t-26.5 -50.5q0 -27 47.5 -149t126.5 -295q85 182 130.5 296t45.5 144q0 36 -27.5 54.5t-84.5 21.5l-1 51q13 1 28 1.5t44 0.5q24 0 64.5 -3t58.5 -3q13 0 64 3t87 3v-53q-66 -6 -100 -29t-68 -98q-3 -8 -20 -48q-88 -214 -186 -425l225 -520l364 987 q7 15 10 27.5t3 21.5q0 35 -28.5 56.5t-82.5 27.5v53q59 -3 105 -4.5t79 -1.5q49 0 93.5 1.5t84.5 4.5l1 -49q-130 -19 -213 -235q-7 -18 -10 -26q-193 -498 -299.5 -800t-106.5 -348v-2h-78q-27 100 -156 401q-55 130 -86 203q-84 -185 -145 -335.5t-100 -268.5h-76 q-22 120 -279 722q-62 146 -96 226q-14 33 -39 94q-143 349 -276 365z" />
<glyph unicode="X" horiz-adv-x="1524" d="M14 0v63q4 0 11 -1t10 -1q156 0 306 205q23 31 36 47l282 373q-31 44 -88 124q-308 432 -360 482q-42 39 -82 54.5t-98 15.5h-13l1 59q16 1 35.5 1.5t56.5 0.5q41 0 115 -5t106 -5q40 0 119.5 4t117.5 4q24 0 36.5 -0.5t21.5 -1.5v-61q-105 0 -145 -10.5t-40 -34.5 q0 -31 175 -268q94 -128 151 -207q179 225 247 327t68 140q0 26 -35.5 40t-107.5 17v59h37q67 0 147.5 -4t94.5 -4q16 0 79 4t109 4h43v-59q-111 0 -174 -31t-137 -129l-324 -430q115 -165 262.5 -379.5t165.5 -234.5q45 -50 94.5 -70t126.5 -20h15v-68h-115q-7 0 -73.5 2 t-125.5 2q-46 0 -112.5 -2t-87.5 -2h-105v63q98 0 136 13.5t38 46.5q0 27 -57 115.5t-272 379.5q-172 -226 -250 -341.5t-78 -141.5q0 -34 32.5 -50t122.5 -24v-61h-79q-27 0 -91 3t-102 3q-30 0 -86 -3t-82 -3h-78z" />
<glyph unicode="Y" horiz-adv-x="1413" d="M-25 1362v61h27q54 0 139.5 -5t116.5 -5t115 3t137 3h39v-59l-82 -4q-35 -2 -53.5 -13.5t-18.5 -31.5q0 -32 102 -175t263 -331l323 440q12 17 18.5 32t6.5 28q0 23 -16.5 35.5t-49.5 15.5l-102 10v51q12 1 26.5 1.5t41.5 0.5q35 0 90.5 -2t77.5 -2q14 0 82 2.5t122 3.5 v-57q-61 -5 -92.5 -18t-64.5 -50q-31 -35 -141.5 -182t-290.5 -391v-504q0 -97 38 -127.5t172 -32.5v-59q-51 2 -101 3t-120 1q-103 0 -196.5 -3.5t-181.5 -10.5l-1 59q135 8 174 37t39 109v440q0 77 -153 272q-68 85 -107 137q-23 32 -63 89q-161 229 -297 229h-19z" />
<glyph unicode="Z" horiz-adv-x="1346" d="M35 20q49 58 101 125.5t110 149.5l606 856q49 69 73.5 112t24.5 60q0 10 -10.5 15t-32.5 5h-479q-126 0 -186 -43.5t-121 -173.5l-64 19q15 53 41 146q46 161 56 218h61q15 -49 64 -68.5t227 -19.5h723l20 -26q-576 -793 -742.5 -1030.5t-166.5 -260.5q0 -13 11 -18.5 t40 -5.5h357q220 0 300.5 52t147.5 192l70 -7l-92 -319q-13 1 -54 3.5t-63 2.5q-35 0 -115.5 -2t-126.5 -2h-770z" />
<glyph unicode="[" horiz-adv-x="821" d="M315 -489v1910h476v-61h-216q-85 0 -116 -36t-31 -144v-1426q0 -109 31.5 -145.5t115.5 -36.5h216v-61h-476z" />
<glyph unicode="\" horiz-adv-x="842" d="M61 1421h93l661 -1611h-94z" />
<glyph unicode="]" horiz-adv-x="821" d="M23 -424h215q84 0 115.5 36.5t31.5 143.5v1428q0 107 -31.5 143.5t-115.5 36.5h-215v61h475v-1910h-475v61z" />
<glyph unicode="^" horiz-adv-x="2048" d="M412 897l522 565h178l520 -565h-92l-518 436l-520 -436h-90z" />
<glyph unicode="_" d="M0 -365h1024v-118h-1024v118z" />
<glyph unicode="`" d="M229 1305q0 30 20.5 49.5t51.5 19.5q21 0 42 -12t56 -47l289 -299h-67l-330 207q-31 20 -46.5 40t-15.5 42z" />
<glyph unicode="a" horiz-adv-x="870" d="M72 207q0 104 403 243l55 19v164q0 72 -44.5 109.5t-129.5 37.5q-62 0 -103.5 -26t-41.5 -64q0 -9 2 -18t6 -17l-118 -67q-7 19 -10 32.5t-3 22.5q0 39 23 70t73 61l226 133q137 -12 201.5 -70.5t64.5 -170.5v-453q0 -75 12 -95t45 -20q24 0 44.5 16.5t35.5 49.5l29 -12 q-17 -85 -63.5 -130t-116.5 -45q-65 0 -97.5 41t-32.5 121v15q-79 -91 -151 -134t-143 -43q-77 0 -121.5 62t-44.5 168zM217 221q0 -62 31 -103.5t78 -41.5q41 0 92 33.5t112 101.5v215l-9 -4q-304 -120 -304 -201z" />
<glyph unicode="b" horiz-adv-x="1102" d="M49 1440v28q45 16 110 45.5t152 73.5v-788q91 52 164.5 78t128.5 26q83 0 154 -31t127 -92q58 -63 90.5 -143.5t32.5 -163.5q0 -100 -33.5 -185.5t-100.5 -154.5q-68 -73 -161 -114.5t-189 -41.5q-79 0 -169 30t-105 30q-13 0 -24.5 -9t-16.5 -24l-8 -29h-49q6 46 9 97 t3 141v1049q0 81 -24.5 116.5t-90.5 61.5zM311 350q0 -142 64 -220.5t180 -78.5q130 0 209.5 100.5t79.5 268.5q0 178 -87 284.5t-231 106.5q-49 0 -101.5 -17.5t-113.5 -54.5v-389z" />
<glyph unicode="c" horiz-adv-x="913" d="M94 414q0 211 131.5 351t327.5 140q115 0 189.5 -46t74.5 -114q0 -34 -21 -54.5t-57 -20.5q-48 0 -103 75l-15 21q-27 34 -58.5 51t-70.5 17q-111 0 -182.5 -95t-71.5 -243q0 -163 93 -275t226 -112q69 0 133 37t127 114l33 -27q-76 -125 -173 -191.5t-206 -66.5 q-161 0 -269 125t-108 314z" />
<glyph unicode="d" horiz-adv-x="1102" d="M94 401q0 93 31.5 181t91.5 163q63 78 150.5 119t191.5 41q44 0 95 -9t112 -28v490q0 33 -23 52t-90 36v37q72 22 136 48t124 56v-1394q0 -55 14.5 -71t55.5 -16q15 0 68 13l8 2v-51q-61 -18 -127 -41t-144 -54l-22 13v137l-143 -102q-33 -23 -73 -35.5t-81 -12.5 q-154 0 -264.5 124t-110.5 302zM256 481q0 -170 81.5 -282.5t201.5 -112.5q52 0 109 29t118 88v403q0 103 -67 169.5t-169 66.5q-117 0 -195.5 -102t-78.5 -259z" />
<glyph unicode="e" horiz-adv-x="913" d="M94 393q0 214 122 363t294 149q138 0 223.5 -86.5t85.5 -226.5q0 -21 -0.5 -32t-1.5 -19h-573q-1 -12 -3.5 -34.5t-2.5 -33.5q0 -157 91 -266t222 -109q62 0 121.5 30.5t124.5 94.5l28 -30q-74 -105 -166 -160.5t-192 -55.5q-165 0 -269 115.5t-104 300.5zM252 598h315 q48 0 68 18.5t20 61.5q0 73 -48.5 120.5t-125.5 47.5q-82 0 -144.5 -67.5t-84.5 -180.5z" />
<glyph unicode="f" horiz-adv-x="711" d="M90 797v86h158v61q0 305 93.5 474t260.5 169q59 0 94 -25t35 -67q0 -31 -19 -49.5t-50 -18.5q-25 0 -69.5 31t-76.5 31q-62 0 -92.5 -46.5t-30.5 -139.5v-9l6 -411h244v-86h-244v-580q0 -109 28 -136.5t128 -27.5h18v-53q-47 2 -92 3t-100 1q-26 0 -95 -3t-112 -3 q-33 0 -50 0.5t-32 2.5v50h12q86 0 115 27.5t29 114.5v604h-158z" />
<glyph unicode="g" horiz-adv-x="1022" d="M119 -250q0 15 0.5 23t1.5 14l209 152q-90 18 -137.5 72.5t-47.5 140.5v16l211 162q-106 24 -165.5 91.5t-59.5 162.5q0 135 100 229t246 94q60 0 127.5 -19.5t149.5 -60.5h231v-90h-182q8 -31 12 -57t4 -47q0 -135 -100 -225.5t-252 -90.5h-31q-68 -24 -107.5 -63 t-39.5 -80q0 -48 42.5 -71t129.5 -23q18 0 87.5 5t121.5 5q133 0 210.5 -71.5t77.5 -194.5q0 -149 -132 -249.5t-332 -100.5q-177 0 -276 73t-99 203zM250 -250q0 -98 77 -160.5t199 -62.5q135 0 219 67.5t84 174.5q0 87 -57.5 131.5t-171.5 44.5q-18 0 -82 -4.5t-109 -6.5 q-81 -35 -120 -80t-39 -104zM272 639q0 -123 57.5 -200t147.5 -77q87 0 142 67t55 173q0 110 -62.5 182t-156.5 72q-80 0 -131.5 -60.5t-51.5 -156.5z" />
<glyph unicode="h" horiz-adv-x="1124" d="M57 51q93 11 120.5 32t27.5 71v1140q0 60 -25.5 91.5t-116.5 74.5v23q70 22 143 48.5t146 55.5v-862q98 84 181 124t157 40q63 0 115 -25.5t84 -70.5q22 -30 31.5 -68t9.5 -115v-39v-428q0 -51 27 -70.5t106 -21.5l-1 -51q-54 3 -103 4.5t-93 1.5q-90 0 -140 -1.5 t-95 -4.5v51q98 4 124.5 24.5t26.5 90.5v414q0 97 -40.5 146.5t-120.5 49.5q-60 0 -128.5 -28.5t-140.5 -83.5v-517q0 -54 28 -74t111 -22v-51q-57 3 -107.5 4.5t-92.5 1.5q-50 0 -108.5 -1.5t-124.5 -4.5z" />
<glyph unicode="i" horiz-adv-x="547" d="M57 51q93 11 120.5 32t27.5 71v497q0 48 -23.5 72.5t-91.5 44.5v35q43 12 209 79l57 23v-758q0 -54 28 -74.5t111 -23.5l1 -49q-13 1 -35 2q-118 6 -168 6q-46 0 -103.5 -2.5t-131.5 -7.5zM168 1395q0 45 32 77.5t76 32.5q45 0 77 -32.5t32 -77.5t-32 -77t-77 -32 q-43 0 -75.5 33t-32.5 76z" />
<glyph unicode="j" horiz-adv-x="555" d="M16 -455q112 76 159.5 183t47.5 286v637q0 48 -23.5 72.5t-90.5 44.5v35q36 9 187 69q53 21 83 33q-1 -22 -4 -64q-4 -76 -4 -100q0 -3 1 -132.5t1 -254.5v-145q0 -180 -10 -264.5t-33 -137.5q-43 -94 -120.5 -174t-176.5 -131zM186 1395q0 45 32.5 77.5t76.5 32.5 t77.5 -33t33.5 -77q0 -45 -33 -77t-78 -32q-43 0 -76 33t-33 76z" />
<glyph unicode="k" horiz-adv-x="1106" d="M72 -2v53q76 8 104.5 30.5t28.5 72.5v1198q-22 25 -50.5 45t-64.5 37v34q87 34 148.5 62t113.5 57v-1100q162 118 245 195.5t83 110.5q0 16 -13 25.5t-41 13.5l-77 8v49q26 0 93.5 -3t109.5 -3q29 0 89 4t91 4q10 0 23 -1t38 -3v-49h-18q-57 0 -95.5 -9.5t-64.5 -29.5 q-26 -21 -103.5 -92t-133.5 -113q103 -143 196 -265.5t154 -197.5q37 -45 65.5 -59.5t69.5 -14.5h22v-51l-55.5 -3t-32.5 -1q-37 0 -91.5 3t-69.5 3q-31 0 -105 -4t-117 -4l1 51q67 5 93.5 19t26.5 45q0 35 -174 254q-62 79 -98 125l-111 -84v-263q0 -53 27 -74.5t98 -23.5 v-49q-15 1 -42 2q-104 6 -142 6q-39 0 -91.5 -2.5t-129.5 -7.5z" />
<glyph unicode="l" horiz-adv-x="547" d="M57 0v49q94 13 121 34t27 71v1108q0 83 -24 118.5t-91 59.5v28q99 38 160 65.5t106 53.5v-1440q0 -54 28 -74.5t111 -23.5l1 -49q-13 1 -35 2q-118 6 -168 6q-62 0 -210 -7q-17 -1 -26 -1z" />
<glyph unicode="m" horiz-adv-x="1688" d="M78 0v51l53 4q42 3 58 20.5t16 80.5v510q0 43 -83 82q-24 11 -38 18v39q44 16 133 50t133 50v-157l60 40q82 60 139.5 83.5t114.5 23.5q85 0 145.5 -43.5t95.5 -128.5l101 76q64 49 119.5 71.5t111.5 22.5q113 0 184.5 -72.5t71.5 -187.5v-463q0 -68 16 -89t62 -28l47 -2 l-1 -51q-37 3 -74 4.5t-87 1.5q-32 0 -104.5 -2t-112.5 -2q-4 0 -13.5 -1t-15.5 -1v51l76 10q36 6 49 32t13 108v387q0 95 -48 146.5t-137 51.5q-56 0 -119 -29.5t-124 -84.5v-500q0 -71 23 -96t83 -25q3 0 8 1t8 1q5 0 7 -0.5t4 -1.5v-51q-13 0 -37.5 2t-36.5 2 q-23 0 -65.5 1t-61.5 1q-28 0 -113 -2q-32 -1 -51 -2q-16 0 -24 -0.5t-14 -1.5l-1 51q73 0 99 22t26 85v426q0 97 -52 149.5t-147 52.5q-52 0 -105.5 -22.5t-119.5 -73.5v-485q0 -95 12 -117t46 -27l77 -10v-51q-17 0 -47.5 3t-44.5 3q-71 0 -161.5 -3t-110.5 -3h-43z" />
<glyph unicode="n" horiz-adv-x="1128" d="M57 51q93 11 120.5 32t27.5 71v497q0 48 -23.5 72.5t-91.5 44.5v35q59 18 121.5 43.5t128.5 58.5l12 -8v-172q99 84 181.5 124t158.5 40q64 0 117 -25.5t84 -70.5q22 -30 31.5 -68t9.5 -115v-39v-428q0 -54 27 -73t106 -19v-51q-53 3 -103.5 4.5t-97.5 1.5 q-51 0 -109.5 -1.5t-125.5 -4.5v51q96 0 123.5 21t27.5 94v414q0 97 -40.5 146.5t-120.5 49.5q-60 0 -128.5 -28.5t-140.5 -83.5v-517q0 -54 28 -74t111 -22v-51q-57 3 -107.5 4.5t-92.5 1.5q-50 0 -108.5 -1.5t-124.5 -4.5z" />
<glyph unicode="o" horiz-adv-x="1124" d="M94 426q0 201 137.5 340t337.5 139q97 0 179 -35.5t151 -107.5q61 -63 95 -144.5t34 -164.5q0 -95 -34 -178t-99 -148q-72 -74 -161.5 -113t-186.5 -39q-193 0 -323 130t-130 321zM268 471q0 -190 85.5 -310t217.5 -120q125 0 204 98t79 256q0 202 -84.5 324.5 t-220.5 122.5q-127 0 -204 -101t-77 -270z" />
<glyph unicode="p" horiz-adv-x="1098" d="M16 -518l1 47q103 6 135 39.5t32 150.5v910q0 58 -24.5 85.5t-96.5 47.5v26q46 19 112 48.5t157 72.5v-141q134 76 201.5 101.5t121.5 25.5q144 0 248.5 -120.5t104.5 -291.5q0 -157 -71 -266t-220 -182q-61 -29 -125.5 -42t-151.5 -13h-66t-42 1v-288q0 -115 32 -140 t158 -32v-47h-22q-58 0 -147.5 6t-121.5 6q-17 0 -75.5 -2t-100.5 -2h-39zM332 252q0 -45 5 -76t15 -45q20 -25 79 -44t126 -19q129 0 209 94.5t80 249.5q0 162 -86.5 264t-220.5 102q-48 0 -100 -16t-107 -47v-463z" />
<glyph unicode="q" horiz-adv-x="1087" d="M94 401q0 94 36 181t103 157q74 77 166.5 117.5t192.5 40.5q58 0 124 -19.5t77 -19.5q22 0 39 11.5t30 35.5l51 -10q-3 -34 -4.5 -72.5t-1.5 -115.5v-1016q0 -96 27 -127t104 -31h19l-1 -51q-24 -2 -40 -3t-29 -1q-28 0 -81.5 3t-78.5 3q-34 0 -104.5 -3t-108.5 -3h-26 v55q105 3 139.5 35.5t34.5 169.5v55v291q-66 -53 -132 -80t-134 -27q-171 0 -286.5 122.5t-115.5 301.5zM262 451q0 -169 86.5 -276t220.5 -107q49 0 96.5 17.5t96.5 53.5v424q0 122 -59 190t-164 68q-119 0 -198 -104.5t-79 -265.5z" />
<glyph unicode="r" horiz-adv-x="768" d="M78 1v46q75 0 101 25t26 100v494q0 43 -83 82q-24 11 -38 18v39l54 20q157 60 218 80v-241l68 88q59 74 109.5 108.5t101.5 34.5q53 0 84 -26.5t31 -71.5q0 -42 -22 -66t-60 -24q-21 0 -65 17t-68 17q-34 0 -73 -32.5t-106 -118.5v-385q0 -86 32.5 -116t131.5 -34v-53 q-35 0 -101.5 1t-99.5 1q-22 0 -80 -3t-96 -3q-26 0 -40 0.5t-25 2.5z" />
<glyph unicode="s" horiz-adv-x="811" d="M97 242l53 8q31 -106 88.5 -161.5t134.5 -55.5q71 0 119.5 43t48.5 106q0 98 -158 193l-21 12q-133 80 -179 138t-46 132q0 103 83.5 175.5t203.5 72.5q54 0 112.5 -14t126.5 -43q-3 -71 -4.5 -117t-1.5 -72h-39q-34 102 -80 146.5t-114 44.5t-113 -38.5t-45 -96.5 q0 -87 188 -195q5 -3 7 -4q131 -76 174 -134.5t43 -139.5q0 -113 -90 -190t-223 -77q-65 0 -129 21t-125 61q-1 18 -3 53q-4 96 -11 132z" />
<glyph unicode="t" horiz-adv-x="721" d="M78 768v41q71 53 134.5 109t125.5 120l20 -4q-1 -16 -1.5 -35t-0.5 -55v-88h265v-86h-269v-463q0 -118 27 -167.5t88 -49.5q49 0 83.5 23.5t57.5 72.5l39 -14q-27 -92 -88.5 -144.5t-142.5 -52.5q-114 0 -161.5 64t-47.5 223v424q0 54 -21 66t-108 16z" />
<glyph unicode="u" horiz-adv-x="1100" d="M39 807v47h16q46 0 141 16t138 20v-544q0 -125 49 -187.5t147 -62.5q48 0 102 26.5t118 80.5v504q0 55 -34 77.5t-120 24.5v45q85 3 159 12.5t142 24.5v-635q0 -92 11 -113.5t42 -21.5q3 0 10.5 1t10.5 1l63 6v-39q-46 -14 -111.5 -42.5t-148.5 -72.5l-20 17q3 34 4.5 73 t1.5 82l-101 -84q-54 -45 -108 -66.5t-113 -21.5q-125 0 -188.5 74t-63.5 219v381q0 99 -27.5 127t-119.5 31z" />
<glyph unicode="v" horiz-adv-x="969" d="M0 829v52h45q38 0 94.5 -3.5t73.5 -3.5q36 0 105 5.5t104 5.5v-53q-73 -4 -98 -15t-25 -37q0 -6 2 -15t6 -20l223 -528q94 217 148.5 366.5t54.5 184.5q0 31 -34 48.5t-97 17.5v46q13 2 26.5 2.5t41.5 0.5q21 0 63 -3t64 -3q14 0 53.5 1.5t107.5 4.5v-49 q-110 -8 -177 -167q-6 -13 -9 -20q-70 -166 -136 -331.5t-132 -340.5h-35q-26 85 -80 206q-14 34 -20 48l-193 465q-30 72 -50 94.5t-52 28.5z" />
<glyph unicode="w" horiz-adv-x="1475" d="M0 832v44q7 2 16.5 2.5t32.5 0.5q27 0 204.5 -5.5t328.5 -5.5q84 0 205.5 4.5t158.5 4.5v-52l-84 -6q-33 -1 -49 -10.5t-16 -28.5q0 -7 1 -13t5 -18l217 -536l184 426q21 46 32 79t11 46q0 19 -14.5 31.5t-42.5 17.5l-76 14v47q37 -1 97 -5.5t83 -4.5q13 0 53.5 1t67.5 1 q31 0 48 -0.5t32 -1.5v-47q-72 0 -115 -27t-71 -90l-150 -327l-15 -33q-125 -269 -159 -365h-35q-12 65 -57.5 184.5t-151.5 358.5q-61 -119 -120 -253t-119 -290h-31q-18 58 -35 104t-33 83l-215 528q-33 81 -72 108.5t-116 33.5zM313 784q0 -8 5 -24t14 -37l205 -508 q50 115 92 205t82 166q-22 58 -47 112.5t-54 106.5q-26 4 -55 6t-61 2h-84q-54 0 -75.5 -6.5t-21.5 -22.5z" />
<glyph unicode="x" horiz-adv-x="1016" d="M35 831v46q10 0 29.5 1t29.5 1q33 0 94 -3.5t88 -3.5q12 0 63.5 2.5t90.5 2.5h37v-46l-60 -4q-26 -1 -40.5 -10t-14.5 -24q0 -7 5.5 -18t15.5 -25l153 -213l117 141q30 37 47 65t17 41q0 20 -15 31t-46 14l-54 7v44q10 2 20.5 2.5t32.5 0.5q26 0 76 -4.5t72 -4.5h14l49 4 q50 3 100 5v-52h-10q-103 0 -243 -168l-3 -4l-137 -167q15 -21 42 -60q264 -379 356 -379q3 0 8 1t8 1v-55q-12 0 -33 1t-31 1q-31 0 -79 2t-64 2q-14 0 -77.5 -2t-121.5 -2q-13 0 -20.5 -0.5t-13.5 -1.5v53l54 2q30 2 48 13.5t18 29.5q0 9 -6.5 23t-17.5 28l-166 230 l-133 -170q-23 -30 -37 -59t-14 -46q0 -18 16 -30.5t46 -16.5l54 -6v-47q-35 1 -68.5 1.5t-76.5 0.5q-30 0 -93.5 -3t-97.5 -3h-24v53q95 2 177 104q8 11 12 16l204 249q-36 50 -97 138q-191 274 -282 274q-2 0 -9 -1.5t-9 -1.5z" />
<glyph unicode="y" horiz-adv-x="1051" d="M0 829v51q11 2 23.5 2.5t37.5 0.5q37 0 107 -4.5t104 -4.5q22 0 90.5 3.5t114.5 3.5v-52l-84 -8q-30 -3 -45.5 -13.5t-15.5 -29.5q0 -7 6 -27t18 -55l193 -495l225 501q9 18 13.5 34.5t5.5 31.5q0 30 -32 45t-106 19l1 49q9 1 18 1.5t28 0.5q26 0 77 -3t77 -3q20 0 68 3 t75 3q21 0 31 -0.5t20 -1.5l1 -49q-70 -2 -110 -25t-79 -92q-18 -30 -110.5 -224t-198.5 -432l-5 -11q-258 -574 -386 -574q-41 0 -66.5 23t-25.5 61q0 35 22.5 58.5t57.5 23.5q8 0 26.5 -2.5t26.5 -2.5q89 0 258 369l4 8l-246 627q-53 132 -90 161t-109 29h-20z" />
<glyph unicode="z" horiz-adv-x="1001" d="M80 29q45 47 202 257.5t367 508.5q-26 4 -55.5 6t-63.5 2h-157q-83 0 -134.5 -30.5t-82.5 -98.5l-62 10q16 38 34 98.5t42 151.5l49 2q5 -40 32.5 -56t121.5 -16h33h266q33 0 98.5 1t97.5 1v-24l-156 -211q-339 -457 -407 -559q55 -4 108 -6.5t105 -2.5h80 q127 0 171.5 22.5t78.5 88.5l41 80l49 -14q-13 -45 -37 -129.5t-33 -108.5q-18 -1 -36.5 -1.5t-47.5 -0.5q-21 0 -187.5 3t-311.5 3q-30 0 -97.5 -1t-105.5 -1z" />
<glyph unicode="{" d="M176 606v60q165 15 223 74t58 216v213q0 200 81 273.5t298 73.5h10v-51q-142 -2 -194 -55.5t-52 -209.5v-143q0 -226 -61 -308.5t-226 -113.5q165 -31 226 -113.5t61 -308.5v-143q0 -156 51.5 -208.5t194.5 -54.5v-51h-10q-217 0 -298 73.5t-81 272.5v213q0 158 -59 218 t-222 73z" />
<glyph unicode="|" d="M449 -483v2048h126v-2048h-126z" />
<glyph unicode="}" d="M178 -193q143 2 194.5 54.5t51.5 208.5v143q0 226 61 308.5t226 113.5q-165 31 -226 113.5t-61 308.5v143q0 156 -52 209.5t-194 55.5v51h10q216 0 297.5 -74t81.5 -273v-213q0 -157 58 -216t223 -74v-60q-163 -13 -222 -73t-59 -218v-213q0 -198 -81.5 -272t-297.5 -74 h-10v51z" />
<glyph unicode="~" horiz-adv-x="1706" d="M178 461v133q105 73 202 109t185 36q56 0 116.5 -12.5t174.5 -52.5q12 -4 35 -13q164 -59 254 -59q85 0 176 36.5t209 119.5v-131q-101 -72 -197.5 -108t-189.5 -36q-43 0 -90.5 9t-100.5 26q-30 10 -87 31q-202 72 -302 72q-83 0 -173.5 -37.5t-211.5 -122.5z" />
<glyph horiz-adv-x="1322" d="M90 797v86h160v6q0 313 151 505.5t392 192.5q96 0 149 -31t73 -60q91 93 196 91q59 0 94 -25t35 -67q0 -31 -19 -49.5t-50 -18.5q-25 0 -69.5 31t-76.5 31q-62 0 -91.5 -46.5t-30.5 -122.5v-27l5 -410h244v-86h-244v-580q0 -109 28 -136.5t128 -27.5h18v-53q-47 2 -92 3 t-100 1q-26 0 -95 -3t-112 -3q-33 0 -50 0.5t-32 2.5v50h12q86 0 115 27.5t29 114.5v604h-460v-580q0 -109 27.5 -136.5t128.5 -27.5h20v-53q-47 2 -92 3t-100 1q-26 0 -95 -3t-112 -3q-33 0 -50 0.5t-32 2.5v50h12q87 0 116.5 27t29.5 115v604h-160zM397 883h460l4 165 q27 242 85 336q-43 2 -82.5 24t-63.5 46q-19 19 -36 25t-35 8t-41 2q-139 0 -215 -109.5t-76 -310.5v-186z" />
<glyph horiz-adv-x="1809" d="M90 797v86h160v6q0 313 167 505.5t408 192.5q96 0 160.5 -39t71.5 -100q157 141 345 139q96 0 160.5 -39t64.5 -96q0 -31 -22 -49.5t-60 -18.5q-33 0 -72.5 23t-88.5 71q-21 6 -42.5 8.5t-44.5 2.5q-139 0 -215 -109.5t-76 -310.5v-186h338q61 0 129.5 5.5t142.5 16.5 l1 -758q0 -53 26.5 -73t116.5 -25v-49q-12 1 -35 2q-117 6 -168 6q-46 0 -103 -2.5t-132 -7.5v55q78 0 112.5 24t34.5 77v497q0 86 -37.5 116t-181.5 30h-244v-580q0 -109 27.5 -136.5t128.5 -27.5h20v-53q-47 2 -92 3t-100 1q-26 0 -95 -3t-112 -3q-33 0 -50 0.5t-32 2.5 v50h12q87 0 116.5 27t29.5 115v604h-462v-580q0 -109 27.5 -136.5t128.5 -27.5h20v-53q-47 2 -92 3t-100 1q-26 0 -95 -3t-112 -3q-33 0 -50 0.5t-32 2.5v50h12q87 0 116.5 27t29.5 115v604h-160zM397 883h462q2 315 147 503q-71 -2 -110.5 21t-88.5 71q-21 6 -42.5 8.5 t-44.5 2.5q-139 0 -231 -109.5t-92 -310.5v-186z" />
<glyph horiz-adv-x="1808" d="M90 797v86h160v6q0 313 160 505.5t401 192.5q96 0 160.5 -39t75.5 -94q110 124 315 131q39 0 87 -9t56 -9q11 0 24 2t27 6l62 20v-1448q0 -54 28 -74.5t113 -23.5v-49q-12 1 -35 2q-117 6 -168 6q-45 0 -101 -2.5t-132 -7.5v53q92 11 119.5 32t27.5 71v643h-465 q0 -689 27.5 -716.5t128.5 -27.5h20v-53q-47 2 -92 3t-100 1q-26 0 -95 -3t-112 -3q-33 0 -50 0.5t-32 2.5v50h12q87 0 116.5 27t29.5 115v604h-461v-580q0 -109 27.5 -136.5t128.5 -27.5h20v-53q-47 2 -92 3t-100 1q-26 0 -95 -3t-112 -3q-33 0 -50 0.5t-32 2.5v50h12 q87 0 116.5 27t29.5 115v604h-160zM397 883h461v24q14 284 82.5 395.5t60 96.5t-46.5 -15q-33 0 -72.5 23t-88.5 71q-21 6 -42.5 8.5t-44.5 2.5q-139 0 -224 -109.5t-85 -310.5v-186zM1005 883h465v377q0 112 -49.5 172.5t-142.5 60.5q-131 0 -202 -110t-71 -316v-184z" />
<glyph unicode="&#xa0;" />
<glyph unicode="&#xa1;" horiz-adv-x="688" d="M197 115q0 74 44.5 360.5t65.5 495.5h39q10 -225 48 -505.5t38 -342.5q0 -78 -29 -120t-84 -42q-61 0 -91.5 38.5t-30.5 115.5zM197 1282q0 52 36.5 88.5t88.5 36.5q51 0 89 -37.5t38 -87.5q0 -51 -38 -89t-89 -38q-52 0 -88.5 37.5t-36.5 89.5z" />
<glyph unicode="&#xa2;" d="M92 444q0 220 137.5 368.5t337.5 148.5q20 0 46.5 -2.5t62.5 -7.5l102 274h64l-107 -291q80 -30 124 -79t44 -105q0 -37 -24.5 -61.5t-61.5 -24.5q-70 0 -123 141q-4 9 -6 14l-248 -674q35 -17 69.5 -25.5t68.5 -8.5q84 0 161.5 47.5t145.5 140.5l30 -14 q-73 -151 -182 -226t-252 -75q-28 0 -51.5 4t-44.5 12l-117 -313h-63l121 331q-115 67 -174.5 175.5t-59.5 250.5zM246 500q0 -110 36 -190t107 -128l256 701q-24 13 -48 19.5t-50 6.5q-128 0 -214.5 -116.5t-86.5 -292.5z" />
<glyph unicode="&#xa3;" d="M104 39q0 71 179 149q16 7 25 11q57 26 95.5 84t38.5 118q0 59 -34.5 128.5t-106.5 156.5h-197v72h158q-43 56 -64.5 116t-21.5 121q0 159 115 264t291 105q111 0 205.5 -46t164.5 -134l-108 -213l-55 16q5 24 7.5 42.5t2.5 35.5q0 101 -70.5 169.5t-175.5 68.5 q-95 0 -153 -60t-58 -158q0 -66 35.5 -146.5t109.5 -180.5h328v-72h-278q30 -53 44.5 -97t14.5 -85q0 -75 -55 -148.5t-164 -144.5l4 -10q3 0 11 1q45 7 65 7q67 0 167 -23.5t134 -23.5q54 0 95 29.5t71 91.5l41 -9q-7 -36 -37 -129.5t-43 -140.5q-41 -11 -74 -16.5 t-61 -5.5q-56 0 -106 16t-107 53q-18 12 -51 39q-77 62 -121 62q-29 0 -50.5 -14.5t-45.5 -50.5q-6 -9 -17 -27q-48 -78 -94 -78q-25 0 -39.5 15.5t-14.5 41.5z" />
<glyph unicode="&#xa4;" horiz-adv-x="1241" d="M86 424l207 205q-44 58 -66 122t-22 134q0 69 22 133.5t66 122.5l-207 205l72 73l207 -207q60 46 122.5 68.5t133.5 22.5t135.5 -22.5t124.5 -68.5l204 207l72 -73l-205 -205q43 -57 64.5 -121t21.5 -135t-21.5 -135.5t-64.5 -120.5l205 -205l-72 -74l-204 207 q-57 -44 -121.5 -66t-138.5 -22t-136.5 21.5t-119.5 66.5l-207 -207zM309 887q0 -131 91.5 -223.5t222.5 -92.5q129 0 221 93t92 223q0 129 -91.5 221t-221.5 92t-222 -92t-92 -221z" />
<glyph unicode="&#xa5;" horiz-adv-x="1176" d="M-35 1292v58h23q46 0 125 -5.5t110 -5.5q25 0 99 3.5t124 3.5h35v-58l-68 -2q-34 -1 -52.5 -12.5t-18.5 -30.5q0 -31 80 -163t217 -324l252 422q10 18 17 38.5t7 30.5q0 17 -13.5 25.5t-49.5 13.5l-74 10v47q13 2 25.5 2.5t36.5 0.5q32 0 85.5 -2.5t73.5 -2.5 q1 0 58.5 2.5t115.5 4.5l1 -54h-5q-76 0 -137 -54.5t-176 -250.5h264v-49h-293q-33 -55 -107 -178l-42 -70h442v-47h-448v-436q0 -90 37 -120t155 -32v-53q-51 1 -100 1.5t-105 0.5q-86 0 -170 -3.5t-165 -10.5v55q119 8 156.5 36t37.5 101v420q0 11 -1.5 20.5t-4.5 20.5 h-457v47h434q-30 52 -66 108.5t-91 139.5h-277v49h246q-103 186 -171 244.5t-157 58.5h-8z" />
<glyph unicode="&#xa6;" d="M449 -350v758h126v-758h-126zM449 674v758h126v-758h-126z" />
<glyph unicode="&#xa7;" d="M139 -274q0 40 26 66t68 26q27 0 48 -11.5t53 -50.5q4 -4 12 -14q65 -76 129 -76q65 0 101 50.5t36 140.5q0 81 -38.5 174t-161.5 278q-156 233 -210.5 369.5t-54.5 263.5q0 71 17.5 138t52.5 130q62 110 176 180t230 70q110 0 177.5 -39t67.5 -100q0 -37 -23 -57.5 t-65 -20.5q-59 0 -116 61q-13 14 -21 21q-29 28 -54 39.5t-54 11.5q-55 0 -90 -40.5t-35 -104.5q0 -67 32.5 -147.5t141.5 -256.5q20 -32 60 -95q261 -412 261 -621q0 -226 -148 -381.5t-362 -155.5q-114 0 -185 42.5t-71 109.5zM233 979q0 -114 58 -252t205 -362 q125 -191 164.5 -288t39.5 -183q0 -33 -5 -67t-15 -69q64 46 99.5 131t35.5 191q0 104 -47.5 222t-212.5 376q-137 213 -182 322.5t-45 201.5q0 25 1 38t3 24q-50 -69 -74.5 -139t-24.5 -146z" />
<glyph unicode="&#xa8;" d="M238 1171q0 41 29 71t69 30t70 -30.5t30 -70.5q0 -43 -28.5 -71.5t-71.5 -28.5t-70.5 28.5t-27.5 71.5zM588 1171q0 40 30 70.5t70 30.5t69 -30t29 -71q0 -43 -27.5 -71.5t-70.5 -28.5t-71.5 28.5t-28.5 71.5z" />
<glyph unicode="&#xa9;" horiz-adv-x="1683" d="M139 678q0 140 53 268.5t152 229.5q98 99 228 152.5t272 53.5q137 0 266.5 -53.5t226.5 -150.5q98 -97 152.5 -228.5t54.5 -271.5t-53 -268t-154 -230q-98 -100 -225 -152.5t-270 -52.5t-269 52.5t-227 152.5t-154 227t-53 271zM225 678q0 -125 47 -238.5t136 -201.5 q88 -89 198.5 -135t235.5 -46q126 0 236.5 46t197.5 135q88 90 135 203t47 237t-47.5 240.5t-132.5 201.5q-86 87 -200.5 135t-233.5 48q-123 0 -237.5 -48.5t-200.5 -136.5q-88 -89 -134.5 -202.5t-46.5 -237.5zM426 664q0 186 116 312t285 126q74 0 148 -34t82 -34 q27 0 42 14.5t21 47.5h35l2 -314h-41q-34 137 -104 206t-176 69q-123 0 -185.5 -94.5t-62.5 -278.5q0 -189 67 -285t199 -96q86 0 156 43t127 131l34 -24q-58 -105 -143 -157t-199 -52q-167 0 -285 123t-118 297z" />
<glyph unicode="&#xaa;" horiz-adv-x="653" d="M53 950q0 72 290 165q35 11 54 18v114q0 51 -33 78t-96 27q-47 0 -78.5 -18.5t-31.5 -45.5q0 -6 1.5 -12t3.5 -13l-87 -46q-6 15 -8 23.5t-2 14.5q0 26 17 48t56 45l168 92q103 -8 152 -49t49 -119v-318q0 -53 9 -66.5t34 -13.5q18 0 32.5 11t26.5 35l21 -9 q-12 -59 -47.5 -91t-87.5 -32q-48 0 -72.5 29t-24.5 86v10q-58 -63 -112.5 -94t-108.5 -31q-58 0 -91.5 44t-33.5 118zM164 961q0 -45 23 -74t57 -29q32 0 69.5 23t83.5 71v152l-8 -3q-225 -84 -225 -140z" />
<glyph unicode="&#xab;" horiz-adv-x="928" d="M92 432l387 340l27 -27l-242 -301l244 -311l-27 -24zM418 432l389 340l24 -27l-241 -301l244 -311l-27 -24z" />
<glyph unicode="&#xac;" horiz-adv-x="1706" d="M254 741v117h1198v-502h-115v385h-1083z" />
<glyph unicode="&#xad;" horiz-adv-x="750" d="M94 385v139h557v-139h-557z" />
<glyph unicode="&#xae;" horiz-adv-x="1683" d="M139 678q0 140 53 268.5t152 229.5q98 99 228 152.5t272 53.5q138 0 268.5 -54t228.5 -152q97 -97 150 -228t53 -272q0 -137 -55.5 -267.5t-157.5 -232.5q-99 -99 -224.5 -150t-270.5 -51q-137 0 -263 52.5t-227 152.5t-154 227t-53 271zM225 678q0 -127 46.5 -239 t136.5 -201q88 -89 198.5 -135t235.5 -46q126 0 236.5 46t197.5 135q88 90 135 203t47 237t-47.5 241.5t-132.5 200.5q-86 87 -200.5 135t-233.5 48q-122 0 -236 -48t-202 -137t-134.5 -202.5t-46.5 -237.5zM469 291v40q72 3 99.5 24.5t27.5 76.5v516q0 55 -26 76t-101 25 v43h393q147 0 232.5 -54.5t85.5 -146.5q0 -76 -69.5 -124t-217.5 -75q93 -29 142 -77.5t71 -133.5q6 -22 11 -63q13 -88 59 -88q32 0 49.5 34t17.5 99h43v-12q0 -88 -40.5 -133.5t-119.5 -45.5q-46 0 -78.5 17t-48.5 49q-18 40 -21 113.5t-9 95.5q-20 68 -70.5 100.5 t-136.5 32.5h-33v-248q0 -54 26.5 -75.5t98.5 -25.5v-40h-385zM729 719q16 -1 32 -1.5t34 -0.5q112 0 173.5 45.5t61.5 128.5q0 73 -53 117.5t-143 44.5q-52 0 -78.5 -18.5t-26.5 -53.5v-262z" />
<glyph unicode="&#xaf;" d="M254 1108v127h516v-127h-516z" />
<glyph unicode="&#xb0;" horiz-adv-x="674" d="M55 1171q0 119 82.5 201t200.5 82q117 0 200 -83t83 -200q0 -116 -83.5 -199t-201.5 -83t-199.5 82t-81.5 200zM135 1171q0 -84 59.5 -143t143.5 -59t142.5 59t58.5 143t-58.5 142.5t-142.5 58.5t-143.5 -58.5t-59.5 -142.5z" />
<glyph unicode="&#xb1;" horiz-adv-x="1706" d="M254 41v117h1198v-117h-1198zM254 719v117h541v344h118v-344h539v-117h-539v-344h-118v344h-541z" />
<glyph unicode="&#xb2;" horiz-adv-x="676" d="M33 541v39q214 181 309.5 308.5t95.5 229.5q0 69 -41.5 111.5t-107.5 42.5q-52 0 -99.5 -30t-91.5 -89l-28 14q54 94 125.5 142.5t156.5 48.5q94 0 149.5 -54t55.5 -145q0 -94 -83.5 -204t-328.5 -318h209q45 0 181 3q47 1 71 1l-69 -102q-68 1 -128.5 1.5t-111.5 0.5 q-47 0 -119.5 -2t-97.5 -2q-11 0 -23 1t-24 3z" />
<glyph unicode="&#xb3;" horiz-adv-x="676" d="M55 598q0 20 14 32.5t35 12.5q10 0 21 -3t16 -7l9 -6q66 -43 108 -43q79 0 136 61.5t57 151.5q0 76 -40.5 122t-105.5 46q-18 0 -31.5 -1.5t-27.5 -4.5l-13 24l89 74q34 29 51.5 58t17.5 59q0 46 -37 76t-96 30q-37 0 -71.5 -16t-71.5 -50l-23 17q44 65 99 97t124 32 q76 0 124 -37t48 -94q0 -38 -23 -76.5t-75 -83.5v-8q90 -34 134 -88t44 -129q0 -59 -25.5 -113.5t-72.5 -95.5q-57 -51 -131.5 -80t-149.5 -29q-59 0 -96 20.5t-37 51.5z" />
<glyph unicode="&#xb4;" d="M336 1016l289 299q35 35 56 47t42 12q31 0 51.5 -19.5t20.5 -49.5q0 -22 -15.5 -42t-46.5 -40l-330 -207h-67z" />
<glyph unicode="&#xb5;" horiz-adv-x="1120" d="M-80 -330q0 40 64.5 273.5t105.5 427.5l109 514h147l-104 -492q-6 -30 -9.5 -58.5t-3.5 -53.5q0 -83 42 -129t118 -46q98 0 163.5 68.5t94.5 200.5l111 510h149l-114 -531q-13 -59 -17 -87.5t-4 -49.5q0 -48 26 -78t66 -30q35 0 65.5 18t51.5 51t41 93.5t39 60.5 q12 0 19 -10t7 -27q0 -25 -11 -66.5t-29 -83.5q-38 -82 -95 -122.5t-135 -40.5q-68 0 -108.5 51t-40.5 139v23q-46 -110 -116 -164t-165 -54q-96 0 -152.5 54.5t-70.5 161.5q-27 -136 -52 -339q-34 -272 -112 -272q-37 0 -58.5 23.5t-21.5 64.5z" />
<glyph unicode="&#xb6;" d="M76 1130q0 157 107.5 253t285.5 96h479v-78h-125v-1401h-94v1401h-182v-1401h-96v782q-173 8 -274 102.5t-101 245.5z" />
<glyph unicode="&#xb7;" horiz-adv-x="512" d="M115 682q0 51 37.5 89t89.5 38t88.5 -37t36.5 -90q0 -52 -37 -88.5t-88 -36.5t-89 37.5t-38 87.5z" />
<glyph unicode="&#xb8;" d="M274 -371l35 78q61 -34 119.5 -53t103.5 -19q63 0 92 22.5t29 70.5q0 42 -30 66t-84 24q-12 0 -27.5 -1.5t-32.5 -4.5v188h64v-112q18 3 32 4t29 2q86 0 134 -43.5t48 -120.5q0 -82 -58 -129t-161 -47q-54 0 -121.5 17t-171.5 58z" />
<glyph unicode="&#xb9;" horiz-adv-x="676" d="M133 1192l86 53q40 25 75.5 53t67.5 60l41 -4v-686q0 -57 24 -77t89 -22v-26q-10 0 -35.5 -1t-42.5 -1q-3 0 -39 1t-67 1q-14 0 -51.5 -2t-61.5 -2h-41v30h12q57 0 81 18t24 60v565q0 15 -2 21t-6 6t-10.5 -3t-16.5 -9l-108 -60z" />
<glyph unicode="&#xba;" horiz-adv-x="844" d="M72 1104q0 141 102.5 237.5t253.5 96.5q73 0 134.5 -25t111.5 -76q46 -43 72 -100t26 -115q0 -65 -25.5 -123t-74.5 -106q-54 -51 -121 -78t-141 -27q-144 0 -241 91t-97 225zM201 1135q0 -134 64 -217.5t163 -83.5q94 0 153.5 68t59.5 179q0 142 -63.5 228t-165.5 86 q-96 0 -153.5 -71t-57.5 -189z" />
<glyph unicode="&#xbb;" horiz-adv-x="928" d="M92 748l27 24l389 -323l-387 -340l-27 26l242 301zM418 748l26 24l390 -323l-388 -340l-26 26l242 301z" />
<glyph unicode="&#xbc;" horiz-adv-x="1632" d="M127 1202l84 49q42 27 75 52t60 53l39 -2v-641q0 -53 23.5 -72t85.5 -21v-24q-9 0 -34.5 -1t-41.5 -1q-3 0 -37 1t-66 1q-11 0 -46.5 -2t-57.5 -2h-41v29h12q53 0 76 16.5t23 54.5v529q-1 17 -2 20.5t-5 3.5q-3 0 -7.5 -1.5t-18.5 -8.5l-103 -57zM303 -18l934 1384h90 l-932 -1384h-92zM1038 246v28q83 111 178 231t105 134l96 125l41 -5q-5 -59 -7.5 -121t-2.5 -134v-182h125v-72h-125v-250h-96v250h-144q-30 0 -118 -3q-34 -1 -52 -1zM1145 344q0 -12 11.5 -17t37.5 -5h158v305l-197 -262q-4 -6 -7 -12t-3 -9z" />
<glyph unicode="&#xbd;" horiz-adv-x="1632" d="M127 1202l84 49q42 27 75 52t60 53l39 -2v-641q0 -53 23.5 -72t85.5 -21v-24q-9 0 -34.5 -1t-41.5 -1q-3 0 -37 1t-66 1q-11 0 -46.5 -2t-57.5 -2h-41v29h12q53 0 76 16.5t23 54.5v529q-1 17 -2 20.5t-5 3.5q-3 0 -7.5 -1.5t-18.5 -8.5l-103 -57zM303 -18l934 1384h90 l-932 -1384h-92zM1018 2v37q203 167 295 286.5t92 215.5q0 64 -39 103.5t-102 39.5q-51 0 -97 -28t-86 -83l-28 15q52 88 119.5 132t150.5 44q90 0 143.5 -50t53.5 -134q0 -88 -79 -189.5t-315 -298.5h199q80 0 133.5 1t106.5 3l-66 -96q-64 1 -121.5 1.5t-107.5 0.5 q-45 0 -114 -2t-93 -2q-10 0 -21.5 1t-23.5 3z" />
<glyph unicode="&#xbe;" horiz-adv-x="1632" d="M53 647q0 19 13 31t34 12q10 0 20 -3t15 -7q5 -3 14 -9q59 -38 97 -38q76 0 130 58t54 143q0 70 -38.5 112.5t-100.5 42.5q-18 0 -30.5 -1.5t-25.5 -3.5l-14 22l86 69q34 28 51 55t17 54q0 43 -36.5 71.5t-92.5 28.5q-36 0 -69 -15t-66 -46l-23 14q41 61 93.5 91 t119.5 30q72 0 118 -35t46 -88q0 -35 -23 -71t-71 -79v-6q87 -32 129.5 -82.5t42.5 -119.5q0 -55 -24.5 -105.5t-69.5 -89.5q-56 -48 -127.5 -75t-141.5 -27q-56 0 -91.5 19t-35.5 48zM303 -18l934 1384h90l-932 -1384h-92zM1038 246v28q83 111 178 231t105 134l96 125 l41 -5q-5 -59 -7.5 -121t-2.5 -134v-182h125v-72h-125v-250h-96v250h-144q-30 0 -118 -3q-34 -1 -52 -1zM1145 344q0 -12 11.5 -17t37.5 -5h158v305l-197 -262q-4 -6 -7 -12t-3 -9z" />
<glyph unicode="&#xbf;" horiz-adv-x="909" d="M209 526q0 97 46 157.5t146 96.5q12 4 34 11q110 35 114 123l8 98h51l13 -350q-164 -36 -241 -100.5t-77 -164.5q0 -91 57.5 -158t159.5 -94q45 5 67 7t38 2q55 0 84.5 -24t29.5 -69t-31.5 -72.5t-84.5 -27.5q-69 0 -140.5 41.5t-126.5 114.5q-66 88 -106.5 201.5 t-40.5 207.5zM463 1280q0 51 36.5 88t88.5 37t89.5 -36.5t37.5 -88.5q0 -51 -38 -88t-89 -37t-88 37t-37 88z" />
<glyph unicode="&#xc0;" horiz-adv-x="1559" d="M37 4v61q101 6 142.5 28.5t68.5 76.5q30 59 109 297q21 63 32 98q96 289 162.5 500t83.5 278l6 21q5 20 31.5 43t99.5 68l27 -11q137 -352 281 -723.5t153 -394.5q59 -147 83.5 -192t47.5 -62q17 -12 49 -19.5t80 -11.5v-59q-12 0 -32.5 -1t-28.5 -1q-43 0 -104.5 5 t-80.5 5q-27 0 -98 -5t-115 -5q-30 0 -45.5 0.5t-29.5 1.5l-1 61h41q61 2 87 19.5t26 54.5q0 18 -5 41.5t-15 48.5l-131 332q-55 0 -374 8q-69 1 -108 2l-78 -243q-18 -60 -27 -98t-9 -58q0 -57 37.5 -82t123.5 -27v-57h-37q-52 0 -130.5 3t-106.5 3q-16 0 -69.5 -1.5 t-145.5 -4.5zM471 1860q0 30 20.5 49.5t51.5 19.5q21 0 42 -12t56 -47l289 -299h-67l-330 207q-31 20 -46.5 40t-15.5 42zM508 649l412 -2q-76 213 -128 342.5t-102 237.5q-23 -77 -86.5 -270.5t-95.5 -307.5z" />
<glyph unicode="&#xc1;" horiz-adv-x="1559" d="M37 4v61q101 6 142.5 28.5t68.5 76.5q30 59 109 297q21 63 32 98q96 289 162.5 500t83.5 278l6 21q5 20 31.5 43t99.5 68l27 -11q137 -352 281 -723.5t153 -394.5q59 -147 83.5 -192t47.5 -62q17 -12 49 -19.5t80 -11.5v-59q-12 0 -32.5 -1t-28.5 -1q-43 0 -104.5 5 t-80.5 5q-27 0 -98 -5t-115 -5q-30 0 -45.5 0.5t-29.5 1.5l-1 61h41q61 2 87 19.5t26 54.5q0 18 -5 41.5t-15 48.5l-131 332q-55 0 -374 8q-69 1 -108 2l-78 -243q-18 -60 -27 -98t-9 -58q0 -57 37.5 -82t123.5 -27v-57h-37q-52 0 -130.5 3t-106.5 3q-16 0 -69.5 -1.5 t-145.5 -4.5zM508 649l412 -2q-76 213 -128 342.5t-102 237.5q-23 -77 -86.5 -270.5t-95.5 -307.5zM578 1571l289 299q35 35 56 47t42 12q31 0 51.5 -19.5t20.5 -49.5q0 -22 -15.5 -42t-46.5 -40l-330 -207h-67z" />
<glyph unicode="&#xc2;" horiz-adv-x="1559" d="M37 4v61q101 6 142.5 28.5t68.5 76.5q30 59 109 297q21 63 32 98q96 289 162.5 500t83.5 278l6 21q5 20 31.5 43t99.5 68l27 -11q137 -352 281 -723.5t153 -394.5q59 -147 83.5 -192t47.5 -62q17 -12 49 -19.5t80 -11.5v-59q-12 0 -32.5 -1t-28.5 -1q-43 0 -104.5 5 t-80.5 5q-27 0 -98 -5t-115 -5q-30 0 -45.5 0.5t-29.5 1.5l-1 61h41q61 2 87 19.5t26 54.5q0 18 -5 41.5t-15 48.5l-131 332q-55 0 -374 8q-69 1 -108 2l-78 -243q-18 -60 -27 -98t-9 -58q0 -57 37.5 -82t123.5 -27v-57h-37q-52 0 -130.5 3t-106.5 3q-16 0 -69.5 -1.5 t-145.5 -4.5zM463 1571l232 350h118l232 -350h-58l-233 211l-233 -211h-58zM508 649l412 -2q-76 213 -128 342.5t-102 237.5q-23 -77 -86.5 -270.5t-95.5 -307.5z" />
<glyph unicode="&#xc3;" horiz-adv-x="1559" d="M37 4v61q101 6 142.5 28.5t68.5 76.5q30 59 109 297q21 63 32 98q96 289 162.5 500t83.5 278l6 21q5 20 31.5 43t99.5 68l27 -11q137 -352 281 -723.5t153 -394.5q59 -147 83.5 -192t47.5 -62q17 -12 49 -19.5t80 -11.5v-59q-12 0 -32.5 -1t-28.5 -1q-43 0 -104.5 5 t-80.5 5q-27 0 -98 -5t-115 -5q-30 0 -45.5 0.5t-29.5 1.5l-1 61h41q61 2 87 19.5t26 54.5q0 18 -5 41.5t-15 48.5l-131 332q-55 0 -374 8q-69 1 -108 2l-78 -243q-18 -60 -27 -98t-9 -58q0 -57 37.5 -82t123.5 -27v-57h-37q-52 0 -130.5 3t-106.5 3q-16 0 -69.5 -1.5 t-145.5 -4.5zM467 1620q19 105 68.5 158t128.5 53q19 0 34 -2t29 -6l111 -31q14 -4 29 -6t26 -2q38 0 59 20t35 70h54q-20 -107 -68 -159t-127 -52q-21 0 -68 11q-4 1 -6 1l-108 27q-17 4 -31 6t-26 2q-32 0 -53 -21t-36 -69h-51zM508 649l412 -2q-76 213 -128 342.5 t-102 237.5q-23 -77 -86.5 -270.5t-95.5 -307.5z" />
<glyph unicode="&#xc4;" horiz-adv-x="1559" d="M37 4v61q101 6 142.5 28.5t68.5 76.5q30 59 109 297q21 63 32 98q96 289 162.5 500t83.5 278l6 21q5 20 31.5 43t99.5 68l27 -11q137 -352 281 -723.5t153 -394.5q59 -147 83.5 -192t47.5 -62q17 -12 49 -19.5t80 -11.5v-59q-12 0 -32.5 -1t-28.5 -1q-43 0 -104.5 5 t-80.5 5q-27 0 -98 -5t-115 -5q-30 0 -45.5 0.5t-29.5 1.5l-1 61h41q61 2 87 19.5t26 54.5q0 18 -5 41.5t-15 48.5l-131 332q-55 0 -374 8q-69 1 -108 2l-78 -243q-18 -60 -27 -98t-9 -58q0 -57 37.5 -82t123.5 -27v-57h-37q-52 0 -130.5 3t-106.5 3q-16 0 -69.5 -1.5 t-145.5 -4.5zM480 1726q0 41 29 71t69 30t70 -30.5t30 -70.5q0 -43 -28.5 -71.5t-71.5 -28.5t-70.5 28.5t-27.5 71.5zM508 649l412 -2q-76 213 -128 342.5t-102 237.5q-23 -77 -86.5 -270.5t-95.5 -307.5zM830 1726q0 40 30 70.5t70 30.5t69 -30t29 -71q0 -43 -27.5 -71.5 t-70.5 -28.5t-71.5 28.5t-28.5 71.5z" />
<glyph unicode="&#xc5;" horiz-adv-x="1559" d="M37 4v61q101 6 142.5 28.5t68.5 76.5q30 59 109 297q21 63 32 98q96 289 162.5 500t83.5 278l6 21q5 20 31.5 43t99.5 68l27 -11q137 -352 281 -723.5t153 -394.5q59 -147 83.5 -192t47.5 -62q17 -12 49 -19.5t80 -11.5v-59q-12 0 -32.5 -1t-28.5 -1q-43 0 -104.5 5 t-80.5 5q-27 0 -98 -5t-115 -5q-30 0 -45.5 0.5t-29.5 1.5l-1 61h41q61 2 87 19.5t26 54.5q0 18 -5 41.5t-15 48.5l-131 332q-55 0 -374 8q-69 1 -108 2l-78 -243q-18 -60 -27 -98t-9 -58q0 -57 37.5 -82t123.5 -27v-57h-37q-52 0 -130.5 3t-106.5 3q-16 0 -69.5 -1.5 t-145.5 -4.5zM508 649l412 -2q-76 213 -128 342.5t-102 237.5q-23 -77 -86.5 -270.5t-95.5 -307.5zM530 1747q0 95 65.5 160t160.5 65q93 0 159 -65.5t66 -159.5q0 -95 -65.5 -161t-159.5 -66q-95 0 -160.5 65.5t-65.5 161.5zM623 1747q0 -54 39.5 -94.5t93.5 -40.5 q55 0 96 40t41 95q0 56 -40 95.5t-97 39.5q-56 0 -94.5 -39.5t-38.5 -95.5z" />
<glyph unicode="&#xc6;" horiz-adv-x="1925" d="M-55 -4v61q58 4 100.5 19.5t71.5 44.5q54 54 201 311q49 86 77 133q250 428 316.5 557.5t66.5 169.5q0 35 -42 51.5t-133 18.5l-1 59q8 1 21.5 1.5t46.5 0.5q22 0 102.5 -1t138.5 -1q74 0 157 -1q22 -1 28 -1q45 0 101.5 1t68.5 1h143q40 0 119 1t119 1h96 q1 -10 1.5 -21.5t0.5 -35.5q0 -32 -3 -111.5t-3 -128.5h-56v13q0 131 -61 177t-319 46q-132 0 -167.5 -35.5t-35.5 -191.5v-367q48 -3 72 -3.5t47 -0.5q4 0 28.5 1t42.5 1q142 0 191.5 34.5t66.5 127.5h51q-4 -70 -6 -171t-2 -247h-53q-8 119 -46.5 157t-205.5 38h-35 q-31 -1 -83 -3.5t-68 -3.5v-405q0 -135 43.5 -178t177.5 -43h246q88 0 134.5 38.5t117.5 192.5l57 -10l-84 -289q-34 -2 -72 -3t-114 -1q-89 0 -256.5 5t-245.5 5q-57 0 -186 -7t-201 -7h-27v55q150 2 194 39t44 150v465h-363l-192 -343q-69 -119 -90 -163.5t-21 -65.5 q0 -37 38 -56.5t112 -19.5h22v-59h-57q-52 0 -122 3t-89 3q-22 0 -87.5 -4t-109.5 -4h-24zM594 766h336v420q0 51 -1.5 78t-5.5 51l-36 8q-28 -69 -62.5 -139.5t-74.5 -141.5z" />
<glyph unicode="&#xc7;" horiz-adv-x="1589" d="M94 717q0 98 28.5 192t84.5 178q119 182 301.5 276.5t411.5 94.5q130 0 250.5 -28.5t230.5 -86.5q2 -49 13 -145.5t13 -142.5l-51 -8q-41 158 -160.5 250t-283.5 92q-133 0 -241 -45.5t-191 -137.5q-88 -96 -135.5 -220.5t-47.5 -256.5q0 -148 45 -272t134 -221 q86 -96 203 -144.5t262 -48.5q178 0 290.5 83t149.5 243l59 -15q-3 -40 -24 -134.5t-29 -145.5q-110 -55 -228.5 -83t-242.5 -28q-183 0 -339 60t-275 176q-110 108 -169 242t-59 276zM602 -371l35 78q61 -34 119.5 -53t103.5 -19q63 0 92 22.5t29 70.5q0 42 -30 66t-84 24 q-12 0 -27.5 -1.5t-32.5 -4.5v188h64v-112q18 3 32 4t29 2q86 0 134 -43.5t48 -120.5q0 -82 -58 -129t-161 -47q-54 0 -121.5 17t-171.5 58z" />
<glyph unicode="&#xc8;" horiz-adv-x="1305" d="M63 -4l1 55q144 2 187.5 39t43.5 150v995q0 71 -50.5 102.5t-168.5 34.5v49q46 3 68 3.5t42 0.5q44 0 126 -3t120 -3q64 0 136 1t79 1h137h240q11 0 42.5 1t57.5 1q1 -9 1.5 -21t0.5 -36q0 -32 -3 -111.5t-3 -128.5h-57v13q0 131 -61.5 177t-319.5 46 q-132 0 -167.5 -35.5t-35.5 -191.5v-342q12 -1 38 -3q55 -4 83 -4q5 0 28 1t42 1q142 0 191 34.5t67 127.5h51q-4 -70 -6 -173t-2 -257h-53q-8 118 -45 155.5t-195 37.5h-45q-47 0 -148 -4h-6v-416q0 -134 44 -177.5t179 -43.5h244q88 0 134.5 38.5t117.5 192.5l57 -10 l-84 -289q-33 -2 -71.5 -3t-114.5 -1q-89 0 -256.5 5t-245.5 5q-58 0 -189 -7t-204 -7h-27zM403 1860q0 30 20.5 49.5t51.5 19.5q21 0 42 -12t56 -47l289 -299h-67l-330 207q-31 20 -46.5 40t-15.5 42z" />
<glyph unicode="&#xc9;" horiz-adv-x="1305" d="M63 -4l1 55q144 2 187.5 39t43.5 150v995q0 71 -50.5 102.5t-168.5 34.5v49q46 3 68 3.5t42 0.5q44 0 126 -3t120 -3q64 0 136 1t79 1h137h240q11 0 42.5 1t57.5 1q1 -9 1.5 -21t0.5 -36q0 -32 -3 -111.5t-3 -128.5h-57v13q0 131 -61.5 177t-319.5 46 q-132 0 -167.5 -35.5t-35.5 -191.5v-342q12 -1 38 -3q55 -4 83 -4q5 0 28 1t42 1q142 0 191 34.5t67 127.5h51q-4 -70 -6 -173t-2 -257h-53q-8 118 -45 155.5t-195 37.5h-45q-47 0 -148 -4h-6v-416q0 -134 44 -177.5t179 -43.5h244q88 0 134.5 38.5t117.5 192.5l57 -10 l-84 -289q-33 -2 -71.5 -3t-114.5 -1q-89 0 -256.5 5t-245.5 5q-58 0 -189 -7t-204 -7h-27zM510 1571l289 299q35 35 56 47t42 12q31 0 51.5 -19.5t20.5 -49.5q0 -22 -15.5 -42t-46.5 -40l-330 -207h-67z" />
<glyph unicode="&#xca;" horiz-adv-x="1305" d="M63 -4l1 55q144 2 187.5 39t43.5 150v995q0 71 -50.5 102.5t-168.5 34.5v49q46 3 68 3.5t42 0.5q44 0 126 -3t120 -3q64 0 136 1t79 1h137h240q11 0 42.5 1t57.5 1q1 -9 1.5 -21t0.5 -36q0 -32 -3 -111.5t-3 -128.5h-57v13q0 131 -61.5 177t-319.5 46 q-132 0 -167.5 -35.5t-35.5 -191.5v-342q12 -1 38 -3q55 -4 83 -4q5 0 28 1t42 1q142 0 191 34.5t67 127.5h51q-4 -70 -6 -173t-2 -257h-53q-8 118 -45 155.5t-195 37.5h-45q-47 0 -148 -4h-6v-416q0 -134 44 -177.5t179 -43.5h244q88 0 134.5 38.5t117.5 192.5l57 -10 l-84 -289q-33 -2 -71.5 -3t-114.5 -1q-89 0 -256.5 5t-245.5 5q-58 0 -189 -7t-204 -7h-27zM395 1571l232 350h118l232 -350h-58l-233 211l-233 -211h-58z" />
<glyph unicode="&#xcb;" horiz-adv-x="1305" d="M63 -4l1 55q144 2 187.5 39t43.5 150v995q0 71 -50.5 102.5t-168.5 34.5v49q46 3 68 3.5t42 0.5q44 0 126 -3t120 -3q64 0 136 1t79 1h137h240q11 0 42.5 1t57.5 1q1 -9 1.5 -21t0.5 -36q0 -32 -3 -111.5t-3 -128.5h-57v13q0 131 -61.5 177t-319.5 46 q-132 0 -167.5 -35.5t-35.5 -191.5v-342q12 -1 38 -3q55 -4 83 -4q5 0 28 1t42 1q142 0 191 34.5t67 127.5h51q-4 -70 -6 -173t-2 -257h-53q-8 118 -45 155.5t-195 37.5h-45q-47 0 -148 -4h-6v-416q0 -134 44 -177.5t179 -43.5h244q88 0 134.5 38.5t117.5 192.5l57 -10 l-84 -289q-33 -2 -71.5 -3t-114.5 -1q-89 0 -256.5 5t-245.5 5q-58 0 -189 -7t-204 -7h-27zM412 1726q0 41 29 71t69 30t70 -30.5t30 -70.5q0 -43 -28.5 -71.5t-71.5 -28.5t-70.5 28.5t-27.5 71.5zM762 1726q0 40 30 70.5t70 30.5t69 -30t29 -71q0 -43 -27.5 -71.5 t-70.5 -28.5t-71.5 28.5t-28.5 71.5z" />
<glyph unicode="&#xcc;" horiz-adv-x="807" d="M94 65q133 4 172 33t39 133v992q0 75 -43 104.5t-165 34.5l-1 59h35q64 0 163.5 -4t135.5 -4h35q7 0 94 3t168 5v-61q-149 -7 -191 -31.5t-42 -89.5v-1032q0 -85 32 -113t136 -28h38v-62q-19 -1 -41 -1.5t-63 -0.5q-48 0 -118.5 2t-92.5 2q-20 0 -84.5 -2t-110.5 -2 q-37 0 -57 0.5t-38 1.5zM120 1860q0 30 20.5 49.5t51.5 19.5q21 0 42 -12t56 -47l289 -299h-67l-330 207q-31 20 -46.5 40t-15.5 42z" />
<glyph unicode="&#xcd;" horiz-adv-x="807" d="M94 65q133 4 172 33t39 133v992q0 75 -43 104.5t-165 34.5l-1 59h35q64 0 163.5 -4t135.5 -4h35q7 0 94 3t168 5v-61q-149 -7 -191 -31.5t-42 -89.5v-1032q0 -85 32 -113t136 -28h38v-62q-19 -1 -41 -1.5t-63 -0.5q-48 0 -118.5 2t-92.5 2q-20 0 -84.5 -2t-110.5 -2 q-37 0 -57 0.5t-38 1.5zM227 1571l289 299q35 35 56 47t42 12q31 0 51.5 -19.5t20.5 -49.5q0 -22 -15.5 -42t-46.5 -40l-330 -207h-67z" />
<glyph unicode="&#xce;" horiz-adv-x="807" d="M94 65q133 4 172 33t39 133v992q0 75 -43 104.5t-165 34.5l-1 59h35q64 0 163.5 -4t135.5 -4h35q7 0 94 3t168 5v-61q-149 -7 -191 -31.5t-42 -89.5v-1032q0 -85 32 -113t136 -28h38v-62q-19 -1 -41 -1.5t-63 -0.5q-48 0 -118.5 2t-92.5 2q-20 0 -84.5 -2t-110.5 -2 q-37 0 -57 0.5t-38 1.5zM112 1571l232 350h118l232 -350h-58l-233 211l-233 -211h-58z" />
<glyph unicode="&#xcf;" horiz-adv-x="807" d="M94 65q133 4 172 33t39 133v992q0 75 -43 104.5t-165 34.5l-1 59h35q64 0 163.5 -4t135.5 -4h35q7 0 94 3t168 5v-61q-149 -7 -191 -31.5t-42 -89.5v-1032q0 -85 32 -113t136 -28h38v-62q-19 -1 -41 -1.5t-63 -0.5q-48 0 -118.5 2t-92.5 2q-20 0 -84.5 -2t-110.5 -2 q-37 0 -57 0.5t-38 1.5zM129 1726q0 41 29 71t69 30t70 -30.5t30 -70.5q0 -43 -28.5 -71.5t-71.5 -28.5t-70.5 28.5t-27.5 71.5zM479 1726q0 40 30 70.5t70 30.5t69 -30t29 -71q0 -43 -27.5 -71.5t-70.5 -28.5t-71.5 28.5t-28.5 71.5z" />
<glyph unicode="&#xd0;" horiz-adv-x="1704" d="M18 721v78h295v430q0 69 -33 96t-118 27q-17 0 -65 -4h-13v55q187 27 338.5 41t265.5 14q204 0 357 -41.5t268 -128.5q134 -101 205 -246t71 -315q0 -329 -220.5 -528t-584.5 -199q-42 0 -153.5 5t-179.5 5q-41 0 -162 -5t-203 -5v61q149 11 188 43.5t39 124.5v492h-295z M500 276q0 -98 70 -150t202 -52q281 0 445.5 178t164.5 483q0 137 -37 242.5t-116 193.5q-96 107 -218 160t-270 53q-145 0 -193 -31.5t-48 -121.5v-432h393v-78h-393v-445z" />
<glyph unicode="&#xd1;" horiz-adv-x="1774" d="M16 1360l1 61q10 1 24 1.5t45 0.5q44 0 166.5 -3.5t200.5 -4.5q77 -92 226 -272q492 -595 728 -834v928q0 68 -37 94.5t-137 26.5h-31v59q36 3 53 3.5t31 0.5q36 0 99 -3t92 -3q21 0 82 3t100 3q9 0 28 -1t29 -1v-61q-97 -4 -136 -14.5t-56 -32.5q-16 -23 -22.5 -117.5 t-6.5 -384.5v-127q0 -181 7 -627q1 -73 1 -110v-35h-18q-10 17 -338.5 401t-781.5 906v-981q0 -99 42.5 -137t155.5 -38h10v-59q-13 -1 -26.5 -1.5t-40.5 -0.5q-38 0 -96.5 3t-77.5 3q-21 0 -78.5 -3t-93.5 -3h-84v61q115 7 156.5 42.5t41.5 125.5v1014q-49 64 -101.5 91.5 t-123.5 27.5q-4 0 -15.5 -1t-17.5 -1zM596 1620q19 105 68.5 158t128.5 53q19 0 34 -2t29 -6l111 -31q14 -4 29 -6t26 -2q38 0 59 20t35 70h54q-20 -107 -68 -159t-127 -52q-21 0 -68 11q-4 1 -6 1l-108 27q-17 4 -31 6t-26 2q-32 0 -53 -21t-36 -69h-51z" />
<glyph unicode="&#xd2;" horiz-adv-x="1815" d="M115 694q0 146 52.5 277.5t154.5 242.5q110 120 260 183t325 63q153 0 288.5 -49.5t246.5 -146.5q118 -105 184 -241t66 -275q0 -154 -60.5 -292.5t-175.5 -250.5q-120 -118 -272 -181t-318 -63q-148 0 -280 50.5t-236 146.5q-114 105 -174.5 243t-60.5 293zM332 752 q0 -319 160.5 -516t416.5 -197q250 0 409 177t159 460q0 93 -18.5 180t-53.5 162q-84 179 -222 273.5t-315 94.5q-242 0 -389 -173t-147 -461zM624 1860q0 30 20.5 49.5t51.5 19.5q21 0 42 -12t56 -47l289 -299h-67l-330 207q-31 20 -46.5 40t-15.5 42z" />
<glyph unicode="&#xd3;" horiz-adv-x="1815" d="M115 694q0 146 52.5 277.5t154.5 242.5q110 120 260 183t325 63q153 0 288.5 -49.5t246.5 -146.5q118 -105 184 -241t66 -275q0 -154 -60.5 -292.5t-175.5 -250.5q-120 -118 -272 -181t-318 -63q-148 0 -280 50.5t-236 146.5q-114 105 -174.5 243t-60.5 293zM332 752 q0 -319 160.5 -516t416.5 -197q250 0 409 177t159 460q0 93 -18.5 180t-53.5 162q-84 179 -222 273.5t-315 94.5q-242 0 -389 -173t-147 -461zM731 1571l289 299q35 35 56 47t42 12q31 0 51.5 -19.5t20.5 -49.5q0 -22 -15.5 -42t-46.5 -40l-330 -207h-67z" />
<glyph unicode="&#xd4;" horiz-adv-x="1815" d="M115 694q0 146 52.5 277.5t154.5 242.5q110 120 260 183t325 63q153 0 288.5 -49.5t246.5 -146.5q118 -105 184 -241t66 -275q0 -154 -60.5 -292.5t-175.5 -250.5q-120 -118 -272 -181t-318 -63q-148 0 -280 50.5t-236 146.5q-114 105 -174.5 243t-60.5 293zM332 752 q0 -319 160.5 -516t416.5 -197q250 0 409 177t159 460q0 93 -18.5 180t-53.5 162q-84 179 -222 273.5t-315 94.5q-242 0 -389 -173t-147 -461zM616 1571l232 350h118l232 -350h-58l-233 211l-233 -211h-58z" />
<glyph unicode="&#xd5;" horiz-adv-x="1815" d="M115 694q0 146 52.5 277.5t154.5 242.5q110 120 260 183t325 63q153 0 288.5 -49.5t246.5 -146.5q118 -105 184 -241t66 -275q0 -154 -60.5 -292.5t-175.5 -250.5q-120 -118 -272 -181t-318 -63q-148 0 -280 50.5t-236 146.5q-114 105 -174.5 243t-60.5 293zM332 752 q0 -319 160.5 -516t416.5 -197q250 0 409 177t159 460q0 93 -18.5 180t-53.5 162q-84 179 -222 273.5t-315 94.5q-242 0 -389 -173t-147 -461zM620 1620q19 105 68.5 158t128.5 53q19 0 34 -2t29 -6l111 -31q14 -4 29 -6t26 -2q38 0 59 20t35 70h54q-20 -107 -68 -159 t-127 -52q-21 0 -68 11q-4 1 -6 1l-108 27q-17 4 -31 6t-26 2q-32 0 -53 -21t-36 -69h-51z" />
<glyph unicode="&#xd6;" horiz-adv-x="1815" d="M115 694q0 146 52.5 277.5t154.5 242.5q110 120 260 183t325 63q153 0 288.5 -49.5t246.5 -146.5q118 -105 184 -241t66 -275q0 -154 -60.5 -292.5t-175.5 -250.5q-120 -118 -272 -181t-318 -63q-148 0 -280 50.5t-236 146.5q-114 105 -174.5 243t-60.5 293zM332 752 q0 -319 160.5 -516t416.5 -197q250 0 409 177t159 460q0 93 -18.5 180t-53.5 162q-84 179 -222 273.5t-315 94.5q-242 0 -389 -173t-147 -461zM633 1726q0 41 29 71t69 30t70 -30.5t30 -70.5q0 -43 -28.5 -71.5t-71.5 -28.5t-70.5 28.5t-27.5 71.5zM983 1726q0 40 30 70.5 t70 30.5t69 -30t29 -71q0 -43 -27.5 -71.5t-70.5 -28.5t-71.5 28.5t-28.5 71.5z" />
<glyph unicode="&#xd7;" horiz-adv-x="1706" d="M301 135l475 475l-475 477l80 82l477 -477l475 477l82 -82l-475 -477l475 -475l-82 -82l-475 475l-477 -475z" />
<glyph unicode="&#xd8;" horiz-adv-x="1815" d="M84 27l197 198q-82 114 -124 232.5t-42 236.5q0 147 52 278.5t152 239.5q114 121 264.5 184.5t325.5 63.5q137 0 261 -41.5t239 -126.5l168 162l59 -55l-168 -160q111 -110 167.5 -234.5t56.5 -256.5q0 -153 -60.5 -292.5t-175.5 -250.5q-120 -118 -272 -181t-318 -63 q-151 0 -282 51.5t-244 155.5l-203 -201zM332 758q0 -118 23.5 -224t70.5 -198l866 860q-89 96 -194.5 143t-229.5 47q-241 0 -388.5 -171.5t-147.5 -456.5zM467 279q72 -116 187 -178t257 -62q250 0 408 178t158 463q0 123 -34 234.5t-104 218.5z" />
<glyph unicode="&#xd9;" horiz-adv-x="1726" d="M82 1366v59q58 -1 155.5 -5.5t135.5 -4.5q43 0 127 3t125 3q30 0 45.5 -0.5t27.5 -1.5v-61h-22q-103 0 -148 -28.5t-45 -92.5v-586q0 -194 14 -281.5t48 -138.5q49 -74 140 -111.5t220 -37.5q229 0 337 119.5t108 371.5v668q0 69 -35 94.5t-145 30.5l-1 59h48 q41 0 104 -3t84 -3q43 0 127 2t125 2l-1 -61q-137 -7 -172.5 -30.5t-35.5 -92.5v-659q0 -312 -142.5 -464.5t-433.5 -152.5q-288 0 -432.5 122.5t-144.5 365.5v684q0 145 -41 186.5t-172 44.5zM632 1860q0 30 20.5 49.5t51.5 19.5q21 0 42 -12t56 -47l289 -299h-67l-330 207 q-31 20 -46.5 40t-15.5 42z" />
<glyph unicode="&#xda;" horiz-adv-x="1726" d="M82 1366v59q58 -1 155.5 -5.5t135.5 -4.5q43 0 127 3t125 3q30 0 45.5 -0.5t27.5 -1.5v-61h-22q-103 0 -148 -28.5t-45 -92.5v-586q0 -194 14 -281.5t48 -138.5q49 -74 140 -111.5t220 -37.5q229 0 337 119.5t108 371.5v668q0 69 -35 94.5t-145 30.5l-1 59h48 q41 0 104 -3t84 -3q43 0 127 2t125 2l-1 -61q-137 -7 -172.5 -30.5t-35.5 -92.5v-659q0 -312 -142.5 -464.5t-433.5 -152.5q-288 0 -432.5 122.5t-144.5 365.5v684q0 145 -41 186.5t-172 44.5zM739 1571l289 299q35 35 56 47t42 12q31 0 51.5 -19.5t20.5 -49.5 q0 -22 -15.5 -42t-46.5 -40l-330 -207h-67z" />
<glyph unicode="&#xdb;" horiz-adv-x="1726" d="M82 1366v59q58 -1 155.5 -5.5t135.5 -4.5q43 0 127 3t125 3q30 0 45.5 -0.5t27.5 -1.5v-61h-22q-103 0 -148 -28.5t-45 -92.5v-586q0 -194 14 -281.5t48 -138.5q49 -74 140 -111.5t220 -37.5q229 0 337 119.5t108 371.5v668q0 69 -35 94.5t-145 30.5l-1 59h48 q41 0 104 -3t84 -3q43 0 127 2t125 2l-1 -61q-137 -7 -172.5 -30.5t-35.5 -92.5v-659q0 -312 -142.5 -464.5t-433.5 -152.5q-288 0 -432.5 122.5t-144.5 365.5v684q0 145 -41 186.5t-172 44.5zM624 1571l232 350h118l232 -350h-58l-233 211l-233 -211h-58z" />
<glyph unicode="&#xdc;" horiz-adv-x="1726" d="M82 1366v59q58 -1 155.5 -5.5t135.5 -4.5q43 0 127 3t125 3q30 0 45.5 -0.5t27.5 -1.5v-61h-22q-103 0 -148 -28.5t-45 -92.5v-586q0 -194 14 -281.5t48 -138.5q49 -74 140 -111.5t220 -37.5q229 0 337 119.5t108 371.5v668q0 69 -35 94.5t-145 30.5l-1 59h48 q41 0 104 -3t84 -3q43 0 127 2t125 2l-1 -61q-137 -7 -172.5 -30.5t-35.5 -92.5v-659q0 -312 -142.5 -464.5t-433.5 -152.5q-288 0 -432.5 122.5t-144.5 365.5v684q0 145 -41 186.5t-172 44.5zM641 1726q0 41 29 71t69 30t70 -30.5t30 -70.5q0 -43 -28.5 -71.5t-71.5 -28.5 t-70.5 28.5t-27.5 71.5zM991 1726q0 40 30 70.5t70 30.5t69 -30t29 -71q0 -43 -27.5 -71.5t-70.5 -28.5t-71.5 28.5t-28.5 71.5z" />
<glyph unicode="&#xdd;" horiz-adv-x="1413" d="M-25 1362v61h27q54 0 139.5 -5t116.5 -5t115 3t137 3h39v-59l-82 -4q-35 -2 -53.5 -13.5t-18.5 -31.5q0 -32 102 -175t263 -331l323 440q12 17 18.5 32t6.5 28q0 23 -16.5 35.5t-49.5 15.5l-102 10v51q12 1 26.5 1.5t41.5 0.5q35 0 90.5 -2t77.5 -2q14 0 82 2.5t122 3.5 v-57q-61 -5 -92.5 -18t-64.5 -50q-31 -35 -141.5 -182t-290.5 -391v-504q0 -97 38 -127.5t172 -32.5v-59q-51 2 -101 3t-120 1q-103 0 -196.5 -3.5t-181.5 -10.5l-1 59q135 8 174 37t39 109v440q0 77 -153 272q-68 85 -107 137q-23 32 -63 89q-161 229 -297 229h-19z M531 1571l289 299q35 35 56 47t42 12q31 0 51.5 -19.5t20.5 -49.5q0 -22 -15.5 -42t-46.5 -40l-330 -207h-67z" />
<glyph unicode="&#xde;" horiz-adv-x="1243" d="M68 2v61q149 10 188 44t39 147v987q0 63 -42.5 88.5t-166.5 32.5v59q76 -1 178.5 -5.5t128.5 -4.5q38 0 132.5 5t150.5 5v-61q-106 -5 -151.5 -32t-45.5 -85v-127h51q106 0 189.5 -11t140.5 -32q148 -58 231 -155.5t83 -212.5q0 -171 -125.5 -281.5t-323.5 -110.5 q-25 0 -51.5 3t-50.5 8v47h24q156 0 243 86t87 239q0 148 -104 248t-259 100q-73 0 -104 -23t-31 -77v-686q0 -128 38.5 -162.5t162.5 -40.5v-55q-6 0 -18.5 1t-18.5 1q-69 0 -169 4t-132 4q-39 0 -168 -4q-68 -3 -106 -4z" />
<glyph unicode="&#xdf;" horiz-adv-x="1184" d="M92 0v51h10q86 0 116 28.5t30 117.5v473q0 68 -29.5 92.5t-114.5 26.5v32q36 12 62.5 28.5t42.5 37.5q35 45 48.5 150.5t21.5 138.5q46 193 158.5 302t264.5 109q116 0 190.5 -70t74.5 -178q0 -63 -26 -121.5t-87 -132.5q-11 -13 -34 -39q-89 -101 -89 -161 q0 -72 104 -189q17 -19 25 -28q128 -147 168.5 -230.5t40.5 -169.5q0 -123 -78.5 -207t-191.5 -84q-82 0 -137.5 44.5t-55.5 107.5q0 38 22 62t56 24q30 0 48 -17t18 -44q0 -10 -1 -25t-1 -20q0 -35 19 -53.5t54 -18.5q57 0 96 45.5t39 114.5q0 60 -32 124.5t-133 188.5 q-19 22 -54 61q-125 141 -125 230q0 74 91 194q19 25 28 37q58 80 83.5 141t25.5 117q0 95 -56.5 158t-140.5 63q-116 0 -182 -109.5t-66 -303.5v-877q0 -110 20 -138t79 -28h26v-55q-37 2 -80 3t-131 1q-21 0 -96.5 -1.5t-120.5 -2.5z" />
<glyph unicode="&#xe0;" horiz-adv-x="870" d="M72 207q0 104 403 243l55 19v164q0 72 -44.5 109.5t-129.5 37.5q-62 0 -103.5 -26t-41.5 -64q0 -9 2 -18t6 -17l-118 -67q-7 19 -10 32.5t-3 22.5q0 39 23 70t73 61l226 133q137 -12 201.5 -70.5t64.5 -170.5v-453q0 -75 12 -95t45 -20q24 0 44.5 16.5t35.5 49.5l29 -12 q-17 -85 -63.5 -130t-116.5 -45q-65 0 -97.5 41t-32.5 121v15q-79 -91 -151 -134t-143 -43q-77 0 -121.5 62t-44.5 168zM141 1305q0 30 20.5 49.5t51.5 19.5q21 0 42 -12t56 -47l289 -299h-67l-330 207q-31 20 -46.5 40t-15.5 42zM217 221q0 -62 31 -103.5t78 -41.5 q41 0 92 33.5t112 101.5v215l-9 -4q-304 -120 -304 -201z" />
<glyph unicode="&#xe1;" horiz-adv-x="870" d="M72 207q0 104 403 243l55 19v164q0 72 -44.5 109.5t-129.5 37.5q-62 0 -103.5 -26t-41.5 -64q0 -9 2 -18t6 -17l-118 -67q-7 19 -10 32.5t-3 22.5q0 39 23 70t73 61l226 133q137 -12 201.5 -70.5t64.5 -170.5v-453q0 -75 12 -95t45 -20q24 0 44.5 16.5t35.5 49.5l29 -12 q-17 -85 -63.5 -130t-116.5 -45q-65 0 -97.5 41t-32.5 121v15q-79 -91 -151 -134t-143 -43q-77 0 -121.5 62t-44.5 168zM217 221q0 -62 31 -103.5t78 -41.5q41 0 92 33.5t112 101.5v215l-9 -4q-304 -120 -304 -201zM248 1016l289 299q35 35 56 47t42 12q31 0 51.5 -19.5 t20.5 -49.5q0 -22 -15.5 -42t-46.5 -40l-330 -207h-67z" />
<glyph unicode="&#xe2;" horiz-adv-x="870" d="M72 207q0 104 403 243l55 19v164q0 72 -44.5 109.5t-129.5 37.5q-62 0 -103.5 -26t-41.5 -64q0 -9 2 -18t6 -17l-118 -67q-7 19 -10 32.5t-3 22.5q0 39 23 70t73 61l226 133q137 -12 201.5 -70.5t64.5 -170.5v-453q0 -75 12 -95t45 -20q24 0 44.5 16.5t35.5 49.5l29 -12 q-17 -85 -63.5 -130t-116.5 -45q-65 0 -97.5 41t-32.5 121v15q-79 -91 -151 -134t-143 -43q-77 0 -121.5 62t-44.5 168zM133 1016l232 350h118l232 -350h-58l-233 211l-233 -211h-58zM217 221q0 -62 31 -103.5t78 -41.5q41 0 92 33.5t112 101.5v215l-9 -4 q-304 -120 -304 -201z" />
<glyph unicode="&#xe3;" horiz-adv-x="870" d="M72 207q0 104 403 243l55 19v164q0 72 -44.5 109.5t-129.5 37.5q-62 0 -103.5 -26t-41.5 -64q0 -9 2 -18t6 -17l-118 -67q-7 19 -10 32.5t-3 22.5q0 39 23 70t73 61l226 133q137 -12 201.5 -70.5t64.5 -170.5v-453q0 -75 12 -95t45 -20q24 0 44.5 16.5t35.5 49.5l29 -12 q-17 -85 -63.5 -130t-116.5 -45q-65 0 -97.5 41t-32.5 121v15q-79 -91 -151 -134t-143 -43q-77 0 -121.5 62t-44.5 168zM137 1065q19 105 68.5 158t128.5 53q19 0 34 -2t29 -6l111 -31q14 -4 29 -6t26 -2q38 0 59 20t35 70h54q-20 -107 -68 -159t-127 -52q-21 0 -68 11 q-4 1 -6 1l-108 27q-17 4 -31 6t-26 2q-32 0 -53 -21t-36 -69h-51zM217 221q0 -62 31 -103.5t78 -41.5q41 0 92 33.5t112 101.5v215l-9 -4q-304 -120 -304 -201z" />
<glyph unicode="&#xe4;" horiz-adv-x="870" d="M72 207q0 104 403 243l55 19v164q0 72 -44.5 109.5t-129.5 37.5q-62 0 -103.5 -26t-41.5 -64q0 -9 2 -18t6 -17l-118 -67q-7 19 -10 32.5t-3 22.5q0 39 23 70t73 61l226 133q137 -12 201.5 -70.5t64.5 -170.5v-453q0 -75 12 -95t45 -20q24 0 44.5 16.5t35.5 49.5l29 -12 q-17 -85 -63.5 -130t-116.5 -45q-65 0 -97.5 41t-32.5 121v15q-79 -91 -151 -134t-143 -43q-77 0 -121.5 62t-44.5 168zM150 1171q0 41 29 71t69 30t70 -30.5t30 -70.5q0 -43 -28.5 -71.5t-71.5 -28.5t-70.5 28.5t-27.5 71.5zM217 221q0 -62 31 -103.5t78 -41.5 q41 0 92 33.5t112 101.5v215l-9 -4q-304 -120 -304 -201zM500 1171q0 40 30 70.5t70 30.5t69 -30t29 -71q0 -43 -27.5 -71.5t-70.5 -28.5t-71.5 28.5t-28.5 71.5z" />
<glyph unicode="&#xe5;" horiz-adv-x="870" d="M72 207q0 104 403 243l55 19v164q0 72 -44.5 109.5t-129.5 37.5q-62 0 -103.5 -26t-41.5 -64q0 -9 2 -18t6 -17l-118 -67q-7 19 -10 32.5t-3 22.5q0 39 23 70t73 61l226 133q137 -12 201.5 -70.5t64.5 -170.5v-453q0 -75 12 -95t45 -20q24 0 44.5 16.5t35.5 49.5l29 -12 q-17 -85 -63.5 -130t-116.5 -45q-65 0 -97.5 41t-32.5 121v15q-79 -91 -151 -134t-143 -43q-77 0 -121.5 62t-44.5 168zM205 1223q0 95 65.5 161t159.5 66t160.5 -67t66.5 -160q0 -94 -66 -160t-161 -66t-160 65t-65 161zM217 221q0 -62 31 -103.5t78 -41.5q41 0 92 33.5 t112 101.5v215l-9 -4q-304 -120 -304 -201zM299 1225q0 -56 39 -94.5t94 -38.5q56 0 94.5 38t38.5 93t-39 94t-94 39t-94 -38t-39 -93z" />
<glyph unicode="&#xe6;" horiz-adv-x="1251" d="M70 207q0 89 262 195q108 44 174 73v158q0 77 -40.5 114t-123.5 37q-59 0 -94 -26t-35 -70q0 -9 1.5 -18t4.5 -19l-135 -57q0 1 -1 4q-3 16 -3 25q0 39 25.5 77.5t76.5 73.5l193 135q134 -17 195 -66.5t61 -142.5v-10q51 110 132 164.5t193 54.5q108 0 170 -55t62 -149 q0 -5 -1 -16.5t-1 -20.5q-166 -53 -296.5 -99t-238.5 -90v-131q0 -115 67 -182.5t181 -67.5q88 0 155.5 36t116.5 108l39 -19q-55 -119 -153.5 -182.5t-229.5 -63.5q-110 0 -186 46t-119 139q-94 -103 -160 -144t-133 -41q-73 0 -116 62t-43 168zM211 221q0 -62 29.5 -103.5 t72.5 -41.5q41 0 90.5 34.5t102.5 100.5v215q-201 -84 -248 -121t-47 -84zM655 530l148 56q129 49 165 81t36 78q0 48 -29 73.5t-82 25.5q-96 0 -162.5 -86t-75.5 -228z" />
<glyph unicode="&#xe7;" horiz-adv-x="913" d="M94 414q0 211 131.5 351t327.5 140q115 0 189.5 -46t74.5 -114q0 -34 -21 -54.5t-57 -20.5q-48 0 -103 75l-15 21q-27 34 -58.5 51t-70.5 17q-111 0 -182.5 -95t-71.5 -243q0 -163 93 -275t226 -112q69 0 133 37t127 114l33 -27q-76 -125 -173 -191.5t-206 -66.5 q-161 0 -269 125t-108 314zM233 -371l35 78q61 -34 119.5 -53t103.5 -19q63 0 92 22.5t29 70.5q0 42 -30 66t-84 24q-12 0 -27.5 -1.5t-32.5 -4.5v188h64v-112q18 3 32 4t29 2q86 0 134 -43.5t48 -120.5q0 -82 -58 -129t-161 -47q-54 0 -121.5 17t-171.5 58z" />
<glyph unicode="&#xe8;" horiz-adv-x="913" d="M94 393q0 214 122 363t294 149q138 0 223.5 -86.5t85.5 -226.5q0 -21 -0.5 -32t-1.5 -19h-573q-1 -12 -3.5 -34.5t-2.5 -33.5q0 -157 91 -266t222 -109q62 0 121.5 30.5t124.5 94.5l28 -30q-74 -105 -166 -160.5t-192 -55.5q-165 0 -269 115.5t-104 300.5zM202 1305 q0 30 20.5 49.5t51.5 19.5q21 0 42 -12t56 -47l289 -299h-67l-330 207q-31 20 -46.5 40t-15.5 42zM252 598h315q48 0 68 18.5t20 61.5q0 73 -48.5 120.5t-125.5 47.5q-82 0 -144.5 -67.5t-84.5 -180.5z" />
<glyph unicode="&#xe9;" horiz-adv-x="913" d="M94 393q0 214 122 363t294 149q138 0 223.5 -86.5t85.5 -226.5q0 -21 -0.5 -32t-1.5 -19h-573q-1 -12 -3.5 -34.5t-2.5 -33.5q0 -157 91 -266t222 -109q62 0 121.5 30.5t124.5 94.5l28 -30q-74 -105 -166 -160.5t-192 -55.5q-165 0 -269 115.5t-104 300.5zM252 598h315 q48 0 68 18.5t20 61.5q0 73 -48.5 120.5t-125.5 47.5q-82 0 -144.5 -67.5t-84.5 -180.5zM309 1016l289 299q35 35 56 47t42 12q31 0 51.5 -19.5t20.5 -49.5q0 -22 -15.5 -42t-46.5 -40l-330 -207h-67z" />
<glyph unicode="&#xea;" horiz-adv-x="913" d="M94 393q0 214 122 363t294 149q138 0 223.5 -86.5t85.5 -226.5q0 -21 -0.5 -32t-1.5 -19h-573q-1 -12 -3.5 -34.5t-2.5 -33.5q0 -157 91 -266t222 -109q62 0 121.5 30.5t124.5 94.5l28 -30q-74 -105 -166 -160.5t-192 -55.5q-165 0 -269 115.5t-104 300.5zM194 1016 l232 350h118l232 -350h-58l-233 211l-233 -211h-58zM252 598h315q48 0 68 18.5t20 61.5q0 73 -48.5 120.5t-125.5 47.5q-82 0 -144.5 -67.5t-84.5 -180.5z" />
<glyph unicode="&#xeb;" horiz-adv-x="913" d="M94 393q0 214 122 363t294 149q138 0 223.5 -86.5t85.5 -226.5q0 -21 -0.5 -32t-1.5 -19h-573q-1 -12 -3.5 -34.5t-2.5 -33.5q0 -157 91 -266t222 -109q62 0 121.5 30.5t124.5 94.5l28 -30q-74 -105 -166 -160.5t-192 -55.5q-165 0 -269 115.5t-104 300.5zM211 1171 q0 41 29 71t69 30t70 -30.5t30 -70.5q0 -43 -28.5 -71.5t-71.5 -28.5t-70.5 28.5t-27.5 71.5zM252 598h315q48 0 68 18.5t20 61.5q0 73 -48.5 120.5t-125.5 47.5q-82 0 -144.5 -67.5t-84.5 -180.5zM561 1171q0 40 30 70.5t70 30.5t69 -30t29 -71q0 -43 -27.5 -71.5 t-70.5 -28.5t-71.5 28.5t-28.5 71.5z" />
<glyph unicode="&#xec;" horiz-adv-x="547" d="M-2 1305q0 30 20.5 49.5t51.5 19.5q21 0 42 -12t56 -47l289 -299h-67l-330 207q-31 20 -46.5 40t-15.5 42zM57 51q93 11 120.5 32t27.5 71v497q0 48 -23.5 72.5t-91.5 44.5v35q43 12 209 79l57 23v-758q0 -54 28 -74.5t111 -23.5l1 -49q-13 1 -35 2q-118 6 -168 6 q-46 0 -103.5 -2.5t-131.5 -7.5z" />
<glyph unicode="&#xed;" horiz-adv-x="547" d="M57 51q93 11 120.5 32t27.5 71v497q0 48 -23.5 72.5t-91.5 44.5v35q43 12 209 79l57 23v-758q0 -54 28 -74.5t111 -23.5l1 -49q-13 1 -35 2q-118 6 -168 6q-46 0 -103.5 -2.5t-131.5 -7.5zM105 1016l289 299q35 35 56 47t42 12q31 0 51.5 -19.5t20.5 -49.5 q0 -22 -15.5 -42t-46.5 -40l-330 -207h-67z" />
<glyph unicode="&#xee;" horiz-adv-x="547" d="M-10 1016l232 350h118l232 -350h-58l-233 211l-233 -211h-58zM57 51q93 11 120.5 32t27.5 71v497q0 48 -23.5 72.5t-91.5 44.5v35q43 12 209 79l57 23v-758q0 -54 28 -74.5t111 -23.5l1 -49q-13 1 -35 2q-118 6 -168 6q-46 0 -103.5 -2.5t-131.5 -7.5z" />
<glyph unicode="&#xef;" horiz-adv-x="547" d="M7 1171q0 41 29 71t69 30t70 -30.5t30 -70.5q0 -43 -28.5 -71.5t-71.5 -28.5t-70.5 28.5t-27.5 71.5zM57 51q93 11 120.5 32t27.5 71v497q0 48 -23.5 72.5t-91.5 44.5v35q43 12 209 79l57 23v-758q0 -54 28 -74.5t111 -23.5l1 -49q-13 1 -35 2q-118 6 -168 6 q-46 0 -103.5 -2.5t-131.5 -7.5zM357 1171q0 40 30 70.5t70 30.5t69 -30t29 -71q0 -43 -27.5 -71.5t-70.5 -28.5t-71.5 28.5t-28.5 71.5z" />
<glyph unicode="&#xf0;" horiz-adv-x="1124" d="M94 426q0 198 136.5 338.5t328.5 140.5q34 0 73 -6.5t89 -19.5l-174 323l-305 -131l-29 55l303 134l-67 126q-19 36 -40.5 52t-52.5 16q-21 0 -74 -24q-21 -10 -32 -15l-23 41q26 14 110 56.5t140 74.5l160 -282l270 116l29 -57l-270 -113l180 -321q97 -173 134.5 -284 t37.5 -212q0 -92 -30 -167.5t-93 -139.5q-74 -74 -163.5 -113t-184.5 -39q-193 0 -323 130t-130 321zM268 471q0 -191 85.5 -310.5t217.5 -119.5q125 0 204 98t79 256q0 202 -84.5 324.5t-220.5 122.5q-127 0 -204 -101t-77 -270z" />
<glyph unicode="&#xf1;" horiz-adv-x="1128" d="M57 51q93 11 120.5 32t27.5 71v497q0 48 -23.5 72.5t-91.5 44.5v35q59 18 121.5 43.5t128.5 58.5l12 -8v-172q99 84 181.5 124t158.5 40q64 0 117 -25.5t84 -70.5q22 -30 31.5 -68t9.5 -115v-39v-428q0 -54 27 -73t106 -19v-51q-53 3 -103.5 4.5t-97.5 1.5 q-51 0 -109.5 -1.5t-125.5 -4.5v51q96 0 123.5 21t27.5 94v414q0 97 -40.5 146.5t-120.5 49.5q-60 0 -128.5 -28.5t-140.5 -83.5v-517q0 -54 28 -74t111 -22v-51q-57 3 -107.5 4.5t-92.5 1.5q-50 0 -108.5 -1.5t-124.5 -4.5zM266 1065q19 105 68.5 158t128.5 53q19 0 34 -2 t29 -6l111 -31q14 -4 29 -6t26 -2q38 0 59 20t35 70h54q-20 -107 -68 -159t-127 -52q-21 0 -68 11q-4 1 -6 1l-108 27q-17 4 -31 6t-26 2q-32 0 -53 -21t-36 -69h-51z" />
<glyph unicode="&#xf2;" horiz-adv-x="1124" d="M94 426q0 201 137.5 340t337.5 139q97 0 179 -35.5t151 -107.5q61 -63 95 -144.5t34 -164.5q0 -95 -34 -178t-99 -148q-72 -74 -161.5 -113t-186.5 -39q-193 0 -323 130t-130 321zM268 471q0 -190 85.5 -310t217.5 -120q125 0 204 98t79 256q0 202 -84.5 324.5 t-220.5 122.5q-127 0 -204 -101t-77 -270zM280 1305q0 30 20.5 49.5t51.5 19.5q21 0 42 -12t56 -47l289 -299h-67l-330 207q-31 20 -46.5 40t-15.5 42z" />
<glyph unicode="&#xf3;" horiz-adv-x="1124" d="M94 426q0 201 137.5 340t337.5 139q97 0 179 -35.5t151 -107.5q61 -63 95 -144.5t34 -164.5q0 -95 -34 -178t-99 -148q-72 -74 -161.5 -113t-186.5 -39q-193 0 -323 130t-130 321zM268 471q0 -190 85.5 -310t217.5 -120q125 0 204 98t79 256q0 202 -84.5 324.5 t-220.5 122.5q-127 0 -204 -101t-77 -270zM387 1016l289 299q35 35 56 47t42 12q31 0 51.5 -19.5t20.5 -49.5q0 -22 -15.5 -42t-46.5 -40l-330 -207h-67z" />
<glyph unicode="&#xf4;" horiz-adv-x="1124" d="M94 426q0 201 137.5 340t337.5 139q97 0 179 -35.5t151 -107.5q61 -63 95 -144.5t34 -164.5q0 -95 -34 -178t-99 -148q-72 -74 -161.5 -113t-186.5 -39q-193 0 -323 130t-130 321zM268 471q0 -190 85.5 -310t217.5 -120q125 0 204 98t79 256q0 202 -84.5 324.5 t-220.5 122.5q-127 0 -204 -101t-77 -270zM272 1016l232 350h118l232 -350h-58l-233 211l-233 -211h-58z" />
<glyph unicode="&#xf5;" horiz-adv-x="1124" d="M94 426q0 201 137.5 340t337.5 139q97 0 179 -35.5t151 -107.5q61 -63 95 -144.5t34 -164.5q0 -95 -34 -178t-99 -148q-72 -74 -161.5 -113t-186.5 -39q-193 0 -323 130t-130 321zM268 471q0 -190 85.5 -310t217.5 -120q125 0 204 98t79 256q0 202 -84.5 324.5 t-220.5 122.5q-127 0 -204 -101t-77 -270zM276 1065q19 105 68.5 158t128.5 53q19 0 34 -2t29 -6l111 -31q14 -4 29 -6t26 -2q38 0 59 20t35 70h54q-20 -107 -68 -159t-127 -52q-21 0 -68 11q-4 1 -6 1l-108 27q-17 4 -31 6t-26 2q-32 0 -53 -21t-36 -69h-51z" />
<glyph unicode="&#xf6;" horiz-adv-x="1124" d="M94 426q0 201 137.5 340t337.5 139q97 0 179 -35.5t151 -107.5q61 -63 95 -144.5t34 -164.5q0 -95 -34 -178t-99 -148q-72 -74 -161.5 -113t-186.5 -39q-193 0 -323 130t-130 321zM268 471q0 -190 85.5 -310t217.5 -120q125 0 204 98t79 256q0 202 -84.5 324.5 t-220.5 122.5q-127 0 -204 -101t-77 -270zM289 1171q0 41 29 71t69 30t70 -30.5t30 -70.5q0 -43 -28.5 -71.5t-71.5 -28.5t-70.5 28.5t-27.5 71.5zM639 1171q0 40 30 70.5t70 30.5t69 -30t29 -71q0 -43 -27.5 -71.5t-70.5 -28.5t-71.5 28.5t-28.5 71.5z" />
<glyph unicode="&#xf7;" horiz-adv-x="1706" d="M254 553v117h1198v-117h-1198zM739 250q0 48 34 81.5t81 33.5t81 -34t34 -81t-33.5 -81t-81.5 -34t-81.5 33.5t-33.5 81.5zM739 971q0 47 34 80.5t81 33.5q48 0 81.5 -33.5t33.5 -80.5q0 -48 -33.5 -81.5t-81.5 -33.5q-49 0 -82 33.5t-33 81.5z" />
<glyph unicode="&#xf8;" horiz-adv-x="1124" d="M43 8l145 137q-45 56 -69.5 130t-24.5 153q0 199 138 338t337 139q84 0 155 -26.5t148 -87.5l123 118l45 -43l-127 -121q58 -69 86.5 -142t28.5 -150q0 -95 -34 -178t-99 -148q-74 -74 -163.5 -113t-184.5 -39q-90 0 -169.5 31t-148.5 92l-143 -135zM268 475 q0 -54 8.5 -110t26.5 -117l477 457q-42 66 -101.5 101.5t-129.5 35.5q-126 0 -203.5 -100.5t-77.5 -266.5zM330 197q45 -78 106 -117t135 -39q125 0 204 98t79 256q0 78 -11.5 140t-35.5 116z" />
<glyph unicode="&#xf9;" horiz-adv-x="1100" d="M39 807v47h16q46 0 141 16t138 20v-544q0 -125 49 -187.5t147 -62.5q48 0 102 26.5t118 80.5v504q0 55 -34 77.5t-120 24.5v45q85 3 159 12.5t142 24.5v-635q0 -92 11 -113.5t42 -21.5q3 0 10.5 1t10.5 1l63 6v-39q-46 -14 -111.5 -42.5t-148.5 -72.5l-20 17q3 34 4.5 73 t1.5 82l-101 -84q-54 -45 -108 -66.5t-113 -21.5q-125 0 -188.5 74t-63.5 219v381q0 99 -27.5 127t-119.5 31zM241 1305q0 30 20.5 49.5t51.5 19.5q21 0 42 -12t56 -47l289 -299h-67l-330 207q-31 20 -46.5 40t-15.5 42z" />
<glyph unicode="&#xfa;" horiz-adv-x="1100" d="M39 807v47h16q46 0 141 16t138 20v-544q0 -125 49 -187.5t147 -62.5q48 0 102 26.5t118 80.5v504q0 55 -34 77.5t-120 24.5v45q85 3 159 12.5t142 24.5v-635q0 -92 11 -113.5t42 -21.5q3 0 10.5 1t10.5 1l63 6v-39q-46 -14 -111.5 -42.5t-148.5 -72.5l-20 17q3 34 4.5 73 t1.5 82l-101 -84q-54 -45 -108 -66.5t-113 -21.5q-125 0 -188.5 74t-63.5 219v381q0 99 -27.5 127t-119.5 31zM348 1016l289 299q35 35 56 47t42 12q31 0 51.5 -19.5t20.5 -49.5q0 -22 -15.5 -42t-46.5 -40l-330 -207h-67z" />
<glyph unicode="&#xfb;" horiz-adv-x="1100" d="M39 807v47h16q46 0 141 16t138 20v-544q0 -125 49 -187.5t147 -62.5q48 0 102 26.5t118 80.5v504q0 55 -34 77.5t-120 24.5v45q85 3 159 12.5t142 24.5v-635q0 -92 11 -113.5t42 -21.5q3 0 10.5 1t10.5 1l63 6v-39q-46 -14 -111.5 -42.5t-148.5 -72.5l-20 17q3 34 4.5 73 t1.5 82l-101 -84q-54 -45 -108 -66.5t-113 -21.5q-125 0 -188.5 74t-63.5 219v381q0 99 -27.5 127t-119.5 31zM233 1016l232 350h118l232 -350h-58l-233 211l-233 -211h-58z" />
<glyph unicode="&#xfc;" horiz-adv-x="1100" d="M39 807v47h16q46 0 141 16t138 20v-544q0 -125 49 -187.5t147 -62.5q48 0 102 26.5t118 80.5v504q0 55 -34 77.5t-120 24.5v45q85 3 159 12.5t142 24.5v-635q0 -92 11 -113.5t42 -21.5q3 0 10.5 1t10.5 1l63 6v-39q-46 -14 -111.5 -42.5t-148.5 -72.5l-20 17q3 34 4.5 73 t1.5 82l-101 -84q-54 -45 -108 -66.5t-113 -21.5q-125 0 -188.5 74t-63.5 219v381q0 99 -27.5 127t-119.5 31zM250 1171q0 41 29 71t69 30t70 -30.5t30 -70.5q0 -43 -28.5 -71.5t-71.5 -28.5t-70.5 28.5t-27.5 71.5zM600 1171q0 40 30 70.5t70 30.5t69 -30t29 -71 q0 -43 -27.5 -71.5t-70.5 -28.5t-71.5 28.5t-28.5 71.5z" />
<glyph unicode="&#xfd;" horiz-adv-x="1051" d="M0 829v51q11 2 23.5 2.5t37.5 0.5q37 0 107 -4.5t104 -4.5q22 0 90.5 3.5t114.5 3.5v-52l-84 -8q-30 -3 -45.5 -13.5t-15.5 -29.5q0 -7 6 -27t18 -55l193 -495l225 501q9 18 13.5 34.5t5.5 31.5q0 30 -32 45t-106 19l1 49q9 1 18 1.5t28 0.5q26 0 77 -3t77 -3q20 0 68 3 t75 3q21 0 31 -0.5t20 -1.5l1 -49q-70 -2 -110 -25t-79 -92q-18 -30 -110.5 -224t-198.5 -432l-5 -11q-258 -574 -386 -574q-41 0 -66.5 23t-25.5 61q0 35 22.5 58.5t57.5 23.5q8 0 26.5 -2.5t26.5 -2.5q89 0 258 369l4 8l-246 627q-53 132 -90 161t-109 29h-20zM350 1016 l289 299q35 35 56 47t42 12q31 0 51.5 -19.5t20.5 -49.5q0 -22 -15.5 -42t-46.5 -40l-330 -207h-67z" />
<glyph unicode="&#xfe;" horiz-adv-x="1098" d="M16 -518l1 47q103 6 135 39.5t32 150.5v1543q0 83 -23.5 118.5t-90.5 59.5v28q82 32 144.5 60.5t117.5 58.5v-819q134 76 201.5 101.5t121.5 25.5q144 0 248.5 -120.5t104.5 -291.5q0 -157 -71 -266t-220 -182q-61 -29 -125.5 -42t-151.5 -13h-66t-42 1v-288 q0 -115 32 -140t158 -32v-47h-22q-58 0 -147.5 6t-121.5 6q-17 0 -75.5 -2t-100.5 -2h-39zM332 252q0 -45 5 -76t15 -45q20 -25 79 -44t126 -19q129 0 209 94.5t80 249.5q0 162 -86.5 264t-220.5 102q-48 0 -100 -16t-107 -47v-463z" />
<glyph unicode="&#xff;" horiz-adv-x="1051" d="M0 829v51q11 2 23.5 2.5t37.5 0.5q37 0 107 -4.5t104 -4.5q22 0 90.5 3.5t114.5 3.5v-52l-84 -8q-30 -3 -45.5 -13.5t-15.5 -29.5q0 -7 6 -27t18 -55l193 -495l225 501q9 18 13.5 34.5t5.5 31.5q0 30 -32 45t-106 19l1 49q9 1 18 1.5t28 0.5q26 0 77 -3t77 -3q20 0 68 3 t75 3q21 0 31 -0.5t20 -1.5l1 -49q-70 -2 -110 -25t-79 -92q-18 -30 -110.5 -224t-198.5 -432l-5 -11q-258 -574 -386 -574q-41 0 -66.5 23t-25.5 61q0 35 22.5 58.5t57.5 23.5q8 0 26.5 -2.5t26.5 -2.5q89 0 258 369l4 8l-246 627q-53 132 -90 161t-109 29h-20zM252 1171 q0 41 29 71t69 30t70 -30.5t30 -70.5q0 -43 -28.5 -71.5t-71.5 -28.5t-70.5 28.5t-27.5 71.5zM602 1171q0 40 30 70.5t70 30.5t69 -30t29 -71q0 -43 -27.5 -71.5t-70.5 -28.5t-71.5 28.5t-28.5 71.5z" />
<glyph unicode="&#x152;" horiz-adv-x="2079" d="M70 711q0 135 46.5 260t135.5 229q101 119 244.5 180.5t318.5 61.5q46 0 163 -12.5t187 -12.5q36 0 120.5 2t133.5 2h129q43 0 126 3t124 3q18 0 37.5 -0.5t60.5 -3.5q2 -10 2 -21.5v-35.5q0 -32 -3 -111.5t-3 -128.5h-57v13q0 131 -61.5 177t-319.5 46 q-132 0 -167.5 -35.5t-35.5 -191.5v-342q12 -1 38 -3q55 -4 83 -4q5 0 28 1t42 1q142 0 191.5 34.5t66.5 127.5h51q-4 -70 -6 -173t-2 -257h-53q-8 118 -45 155.5t-195 37.5h-45q-47 0 -148 -4h-6v-416q0 -134 44 -177.5t180 -43.5h243q88 0 134.5 38.5t117.5 192.5l58 -10 l-84 -289q-32 -2 -69 -3t-112 -1q-78 0 -235.5 4t-237.5 4q-91 0 -241 -13t-209 -13q-175 0 -297.5 38.5t-216.5 122.5q-124 111 -190 258t-66 310zM289 739q0 -153 45 -284.5t133 -233.5q70 -80 163.5 -124t194.5 -44q143 0 200.5 68.5t57.5 249.5v671q0 170 -68 248 t-216 78q-229 0 -369.5 -172t-140.5 -457z" />
<glyph unicode="&#x153;" horiz-adv-x="1665" d="M94 416q0 208 136.5 348.5t338.5 140.5q110 0 201.5 -46.5t161.5 -137.5q65 93 144 138.5t175 45.5q148 0 233 -81t85 -222v-22h-568q-2 -16 -3 -34t-1 -50q0 -174 88 -286t222 -112q59 0 118.5 31t122.5 94l31 -30q-74 -106 -167.5 -162t-197.5 -56q-95 0 -171 46.5 t-125 134.5q-75 -89 -169.5 -135t-201.5 -46q-191 0 -322 128.5t-131 312.5zM268 471q0 -191 85 -311.5t216 -120.5q121 0 199 99.5t78 256.5q0 201 -84.5 324t-218.5 123q-124 0 -199.5 -101.5t-75.5 -269.5zM1012 633l200 2q119 0 159 20t40 70q0 52 -46.5 89.5 t-113.5 37.5q-85 0 -149.5 -58.5t-89.5 -160.5z" />
<glyph unicode="&#x178;" horiz-adv-x="1413" d="M-25 1362v61h27q54 0 139.5 -5t116.5 -5t115 3t137 3h39v-59l-82 -4q-35 -2 -53.5 -13.5t-18.5 -31.5q0 -32 102 -175t263 -331l323 440q12 17 18.5 32t6.5 28q0 23 -16.5 35.5t-49.5 15.5l-102 10v51q12 1 26.5 1.5t41.5 0.5q35 0 90.5 -2t77.5 -2q14 0 82 2.5t122 3.5 v-57q-61 -5 -92.5 -18t-64.5 -50q-31 -35 -141.5 -182t-290.5 -391v-504q0 -97 38 -127.5t172 -32.5v-59q-51 2 -101 3t-120 1q-103 0 -196.5 -3.5t-181.5 -10.5l-1 59q135 8 174 37t39 109v440q0 77 -153 272q-68 85 -107 137q-23 32 -63 89q-161 229 -297 229h-19z M433 1726q0 41 29 71t69 30t70 -30.5t30 -70.5q0 -43 -28.5 -71.5t-71.5 -28.5t-70.5 28.5t-27.5 71.5zM783 1726q0 40 30 70.5t70 30.5t69 -30t29 -71q0 -43 -27.5 -71.5t-70.5 -28.5t-71.5 28.5t-28.5 71.5z" />
<glyph unicode="&#x2c6;" d="M221 1016l232 350h118l232 -350h-58l-233 211l-233 -211h-58z" />
<glyph unicode="&#x2dc;" d="M225 1065q19 105 68.5 158t128.5 53q19 0 34 -2t29 -6l111 -31q14 -4 29 -6t26 -2q38 0 59 20t35 70h54q-20 -107 -68 -159t-127 -52q-21 0 -68 11q-4 1 -6 1l-108 27q-17 4 -31 6t-26 2q-32 0 -53 -21t-36 -69h-51z" />
<glyph unicode="&#x2000;" horiz-adv-x="986" />
<glyph unicode="&#x2001;" horiz-adv-x="1972" />
<glyph unicode="&#x2002;" horiz-adv-x="986" />
<glyph unicode="&#x2003;" horiz-adv-x="1972" />
<glyph unicode="&#x2004;" horiz-adv-x="657" />
<glyph unicode="&#x2005;" horiz-adv-x="493" />
<glyph unicode="&#x2006;" horiz-adv-x="328" />
<glyph unicode="&#x2007;" horiz-adv-x="328" />
<glyph unicode="&#x2008;" horiz-adv-x="246" />
<glyph unicode="&#x2009;" horiz-adv-x="394" />
<glyph unicode="&#x200a;" horiz-adv-x="109" />
<glyph unicode="&#x2010;" horiz-adv-x="750" d="M94 385v139h557v-139h-557z" />
<glyph unicode="&#x2011;" horiz-adv-x="750" d="M94 385v139h557v-139h-557z" />
<glyph unicode="&#x2012;" horiz-adv-x="750" d="M94 385v139h557v-139h-557z" />
<glyph unicode="&#x2013;" d="M0 403v103h1024v-103h-1024z" />
<glyph unicode="&#x2014;" horiz-adv-x="2048" d="M0 403v103h2048v-103h-2048z" />
<glyph unicode="&#x2018;" horiz-adv-x="532" d="M115 1122q0 116 82.5 194t234.5 105l12 -47q-106 -33 -155 -76.5t-49 -103.5q0 -24 10 -46t31 -44q64 -13 93 -34.5t29 -55.5q0 -42 -30.5 -68t-79.5 -26q-75 0 -126.5 57.5t-51.5 144.5z" />
<glyph unicode="&#x2019;" horiz-adv-x="532" d="M88 967q105 33 154 76.5t49 103.5q0 25 -9.5 47t-29.5 43q-64 13 -93.5 34.5t-29.5 55.5q0 42 31 68t80 26q77 0 127.5 -58t50.5 -151q0 -110 -84 -188t-234 -104z" />
<glyph unicode="&#x201a;" horiz-adv-x="532" d="M88 -197q105 33 154 76.5t49 104.5q0 24 -9.5 46t-29.5 44q-64 13 -93.5 34.5t-29.5 55.5q0 41 31 67.5t80 26.5q77 0 127.5 -58t50.5 -151q0 -110 -84 -188t-234 -105z" />
<glyph unicode="&#x201c;" horiz-adv-x="901" d="M115 1122q0 116 82.5 194t234.5 105l12 -47q-106 -33 -155 -76.5t-49 -103.5q0 -24 10 -46t31 -44q64 -13 93 -34.5t29 -55.5q0 -42 -30.5 -68t-79.5 -26q-75 0 -126.5 57.5t-51.5 144.5zM483 1122q0 116 83 194t235 105l12 -47q-106 -33 -155.5 -76.5t-49.5 -103.5 q0 -24 10 -46t31 -44q64 -13 93.5 -34.5t29.5 -55.5q0 -42 -31 -68t-79 -26q-76 0 -127.5 57.5t-51.5 144.5z" />
<glyph unicode="&#x201d;" horiz-adv-x="901" d="M88 967q105 33 154 76.5t49 103.5q0 25 -9.5 47t-29.5 43q-64 13 -93.5 34.5t-29.5 55.5q0 42 31 68t80 26q77 0 127.5 -58t50.5 -151q0 -110 -84 -188t-234 -104zM457 967q105 33 153.5 76.5t48.5 103.5q0 25 -9.5 47t-28.5 43q-64 13 -93.5 34.5t-29.5 55.5 q0 42 30.5 68t79.5 26q78 0 128 -58t50 -151q0 -110 -83.5 -188t-233.5 -104z" />
<glyph unicode="&#x201e;" horiz-adv-x="901" d="M88 -197q105 33 154 76.5t49 104.5q0 24 -9.5 46t-29.5 44q-64 13 -93.5 34.5t-29.5 55.5q0 41 31 67.5t80 26.5q77 0 127.5 -58t50.5 -151q0 -110 -84 -188t-234 -105zM457 -197q105 33 153.5 76.5t48.5 104.5q0 24 -9.5 46t-28.5 44q-64 13 -93.5 34.5t-29.5 55.5 q0 41 30.5 67.5t79.5 26.5q78 0 128 -58t50 -151q0 -110 -83.5 -188t-233.5 -105z" />
<glyph unicode="&#x2022;" horiz-adv-x="1208" d="M307 762q0 123 87 209t210 86q122 0 208.5 -86.5t86.5 -208.5t-87.5 -209.5t-209.5 -87.5q-123 0 -209 87t-86 210z" />
<glyph unicode="&#x2026;" horiz-adv-x="2048" d="M201 102q0 51 37.5 88t89.5 37t88.5 -36t36.5 -89q0 -52 -37 -89.5t-88 -37.5t-89 38.5t-38 88.5zM883 102q0 51 37.5 88t89.5 37t88.5 -36t36.5 -89q0 -52 -37 -89.5t-88 -37.5t-89 38.5t-38 88.5zM1567 102q0 51 37.5 88t89.5 37t88.5 -36t36.5 -89q0 -52 -37 -89.5 t-88 -37.5t-89 38.5t-38 88.5z" />
<glyph unicode="&#x202f;" horiz-adv-x="394" />
<glyph unicode="&#x2039;" horiz-adv-x="602" d="M94 432l387 340l27 -27l-242 -301l242 -311l-25 -24z" />
<glyph unicode="&#x203a;" horiz-adv-x="602" d="M94 135l242 301l-242 312l25 24l389 -323l-387 -340z" />
<glyph unicode="&#x205f;" horiz-adv-x="493" />
<glyph unicode="&#x2122;" horiz-adv-x="1683" d="M244 1260l12 178h440l11 -178h-25q-8 79 -40.5 115t-96.5 36h-21v-426q0 -23 12 -37t33 -16l31 -2v-27h-248v27l31 2q21 1 33 15.5t12 37.5v426h-20q-64 0 -97 -36t-41 -115h-26zM788 903v27l34 2q21 2 32.5 16t11.5 37v371q0 23 -12.5 37t-34.5 16l-31 2v27h183 l141 -400l148 400h174v-25l-30 -2q-22 -2 -34 -15.5t-12 -37.5v-373q0 -24 12 -37.5t34 -15.5l30 -2v-27h-236v27l31 2q21 2 33 16t12 37v395l-178 -479h-15l-174 479v-395q0 -23 12.5 -37t34.5 -16l31 -2v-27h-197z" />
<glyph unicode="&#x25fc;" horiz-adv-x="885" d="M0 0v885h885v-885h-885z" />
</font>
</defs>
</svg>
